<?xml version="1.0" encoding="utf-8" standalone="no"?>
<!DOCTYPE svg PUBLIC "-//W3C//DTD SVG 1.1//EN"
  "http://www.w3.org/Graphics/SVG/1.1/DTD/svg11.dtd">
<svg xmlns:xlink="http://www.w3.org/1999/xlink" width="1152pt" height="648pt" viewBox="0 0 1152 648" xmlns="http://www.w3.org/2000/svg" version="1.1">
 <metadata>
  <rdf:RDF xmlns:dc="http://purl.org/dc/elements/1.1/" xmlns:cc="http://creativecommons.org/ns#" xmlns:rdf="http://www.w3.org/1999/02/22-rdf-syntax-ns#">
   <cc:Work>
    <dc:type rdf:resource="http://purl.org/dc/dcmitype/StillImage"/>
    <dc:date>2026-03-11T18:33:18.446166</dc:date>
    <dc:format>image/svg+xml</dc:format>
    <dc:creator>
     <cc:Agent>
      <dc:title>Matplotlib v3.10.5, https://matplotlib.org/</dc:title>
     </cc:Agent>
    </dc:creator>
   </cc:Work>
  </rdf:RDF>
 </metadata>
 <defs>
  <style type="text/css">*{stroke-linejoin: round; stroke-linecap: butt}</style>
 </defs>
 <g id="figure_1">
  <g id="patch_1">
   <path d="M 0 648 
L 1152 648 
L 1152 0 
L 0 0 
z
" style="fill: #ffffff"/>
  </g>
  <g id="axes_1">
   <g id="patch_2">
    <path d="M 82.42 575.455003 
L 604.66 575.455003 
L 604.66 52.08 
L 82.42 52.08 
z
" style="fill: #ffffff"/>
   </g>
   <g id="matplotlib.axis_1">
    <g id="xtick_1">
     <g id="line2d_1">
      <defs>
       <path id="m74d4ae1628" d="M 0 0 
L 0 3.5 
" style="stroke: #000000; stroke-width: 0.8"/>
      </defs>
      <g>
       <use xlink:href="#m74d4ae1628" x="106.158182" y="575.455003" style="stroke: #000000; stroke-width: 0.8"/>
      </g>
     </g>
     <g id="text_1">
      <!-- Jan -->
      <g transform="translate(101.959293 601.983083) rotate(-45) scale(0.12 -0.12)">
       <defs>
        <path id="DejaVuSans-4a" d="M 628 4666 
L 1259 4666 
L 1259 325 
Q 1259 -519 939 -900 
Q 619 -1281 -91 -1281 
L -331 -1281 
L -331 -750 
L -134 -750 
Q 284 -750 456 -515 
Q 628 -281 628 325 
L 628 4666 
z
" transform="scale(0.015625)"/>
        <path id="DejaVuSans-61" d="M 2194 1759 
Q 1497 1759 1228 1600 
Q 959 1441 959 1056 
Q 959 750 1161 570 
Q 1363 391 1709 391 
Q 2188 391 2477 730 
Q 2766 1069 2766 1631 
L 2766 1759 
L 2194 1759 
z
M 3341 1997 
L 3341 0 
L 2766 0 
L 2766 531 
Q 2569 213 2275 61 
Q 1981 -91 1556 -91 
Q 1019 -91 701 211 
Q 384 513 384 1019 
Q 384 1609 779 1909 
Q 1175 2209 1959 2209 
L 2766 2209 
L 2766 2266 
Q 2766 2663 2505 2880 
Q 2244 3097 1772 3097 
Q 1472 3097 1187 3025 
Q 903 2953 641 2809 
L 641 3341 
Q 956 3463 1253 3523 
Q 1550 3584 1831 3584 
Q 2591 3584 2966 3190 
Q 3341 2797 3341 1997 
z
" transform="scale(0.015625)"/>
        <path id="DejaVuSans-6e" d="M 3513 2113 
L 3513 0 
L 2938 0 
L 2938 2094 
Q 2938 2591 2744 2837 
Q 2550 3084 2163 3084 
Q 1697 3084 1428 2787 
Q 1159 2491 1159 1978 
L 1159 0 
L 581 0 
L 581 3500 
L 1159 3500 
L 1159 2956 
Q 1366 3272 1645 3428 
Q 1925 3584 2291 3584 
Q 2894 3584 3203 3211 
Q 3513 2838 3513 2113 
z
" transform="scale(0.015625)"/>
       </defs>
       <use xlink:href="#DejaVuSans-4a"/>
       <use xlink:href="#DejaVuSans-61" transform="translate(29.492188 0)"/>
       <use xlink:href="#DejaVuSans-6e" transform="translate(90.771484 0)"/>
      </g>
     </g>
    </g>
    <g id="xtick_2">
     <g id="line2d_2">
      <g>
       <use xlink:href="#m74d4ae1628" x="149.318512" y="575.455003" style="stroke: #000000; stroke-width: 0.8"/>
      </g>
     </g>
     <g id="text_2">
      <!-- Feb -->
      <g transform="translate(144.14912 603.924091) rotate(-45) scale(0.12 -0.12)">
       <defs>
        <path id="DejaVuSans-46" d="M 628 4666 
L 3309 4666 
L 3309 4134 
L 1259 4134 
L 1259 2759 
L 3109 2759 
L 3109 2228 
L 1259 2228 
L 1259 0 
L 628 0 
L 628 4666 
z
" transform="scale(0.015625)"/>
        <path id="DejaVuSans-65" d="M 3597 1894 
L 3597 1613 
L 953 1613 
Q 991 1019 1311 708 
Q 1631 397 2203 397 
Q 2534 397 2845 478 
Q 3156 559 3463 722 
L 3463 178 
Q 3153 47 2828 -22 
Q 2503 -91 2169 -91 
Q 1331 -91 842 396 
Q 353 884 353 1716 
Q 353 2575 817 3079 
Q 1281 3584 2069 3584 
Q 2775 3584 3186 3129 
Q 3597 2675 3597 1894 
z
M 3022 2063 
Q 3016 2534 2758 2815 
Q 2500 3097 2075 3097 
Q 1594 3097 1305 2825 
Q 1016 2553 972 2059 
L 3022 2063 
z
" transform="scale(0.015625)"/>
        <path id="DejaVuSans-62" d="M 3116 1747 
Q 3116 2381 2855 2742 
Q 2594 3103 2138 3103 
Q 1681 3103 1420 2742 
Q 1159 2381 1159 1747 
Q 1159 1113 1420 752 
Q 1681 391 2138 391 
Q 2594 391 2855 752 
Q 3116 1113 3116 1747 
z
M 1159 2969 
Q 1341 3281 1617 3432 
Q 1894 3584 2278 3584 
Q 2916 3584 3314 3078 
Q 3713 2572 3713 1747 
Q 3713 922 3314 415 
Q 2916 -91 2278 -91 
Q 1894 -91 1617 61 
Q 1341 213 1159 525 
L 1159 0 
L 581 0 
L 581 4863 
L 1159 4863 
L 1159 2969 
z
" transform="scale(0.015625)"/>
       </defs>
       <use xlink:href="#DejaVuSans-46"/>
       <use xlink:href="#DejaVuSans-65" transform="translate(52.019531 0)"/>
       <use xlink:href="#DejaVuSans-62" transform="translate(113.542969 0)"/>
      </g>
     </g>
    </g>
    <g id="xtick_3">
     <g id="line2d_3">
      <g>
       <use xlink:href="#m74d4ae1628" x="192.478843" y="575.455003" style="stroke: #000000; stroke-width: 0.8"/>
      </g>
     </g>
     <g id="text_3">
      <!-- Mar -->
      <g transform="translate(186.815581 604.911831) rotate(-45) scale(0.12 -0.12)">
       <defs>
        <path id="DejaVuSans-4d" d="M 628 4666 
L 1569 4666 
L 2759 1491 
L 3956 4666 
L 4897 4666 
L 4897 0 
L 4281 0 
L 4281 4097 
L 3078 897 
L 2444 897 
L 1241 4097 
L 1241 0 
L 628 0 
L 628 4666 
z
" transform="scale(0.015625)"/>
        <path id="DejaVuSans-72" d="M 2631 2963 
Q 2534 3019 2420 3045 
Q 2306 3072 2169 3072 
Q 1681 3072 1420 2755 
Q 1159 2438 1159 1844 
L 1159 0 
L 581 0 
L 581 3500 
L 1159 3500 
L 1159 2956 
Q 1341 3275 1631 3429 
Q 1922 3584 2338 3584 
Q 2397 3584 2469 3576 
Q 2541 3569 2628 3553 
L 2631 2963 
z
" transform="scale(0.015625)"/>
       </defs>
       <use xlink:href="#DejaVuSans-4d"/>
       <use xlink:href="#DejaVuSans-61" transform="translate(86.279297 0)"/>
       <use xlink:href="#DejaVuSans-72" transform="translate(147.558594 0)"/>
      </g>
     </g>
    </g>
    <g id="xtick_4">
     <g id="line2d_4">
      <g>
       <use xlink:href="#m74d4ae1628" x="235.639174" y="575.455003" style="stroke: #000000; stroke-width: 0.8"/>
      </g>
     </g>
     <g id="text_4">
      <!-- Apr -->
      <g transform="translate(230.640812 603.582028) rotate(-45) scale(0.12 -0.12)">
       <defs>
        <path id="DejaVuSans-41" d="M 2188 4044 
L 1331 1722 
L 3047 1722 
L 2188 4044 
z
M 1831 4666 
L 2547 4666 
L 4325 0 
L 3669 0 
L 3244 1197 
L 1141 1197 
L 716 0 
L 50 0 
L 1831 4666 
z
" transform="scale(0.015625)"/>
        <path id="DejaVuSans-70" d="M 1159 525 
L 1159 -1331 
L 581 -1331 
L 581 3500 
L 1159 3500 
L 1159 2969 
Q 1341 3281 1617 3432 
Q 1894 3584 2278 3584 
Q 2916 3584 3314 3078 
Q 3713 2572 3713 1747 
Q 3713 922 3314 415 
Q 2916 -91 2278 -91 
Q 1894 -91 1617 61 
Q 1341 213 1159 525 
z
M 3116 1747 
Q 3116 2381 2855 2742 
Q 2594 3103 2138 3103 
Q 1681 3103 1420 2742 
Q 1159 2381 1159 1747 
Q 1159 1113 1420 752 
Q 1681 391 2138 391 
Q 2594 391 2855 752 
Q 3116 1113 3116 1747 
z
" transform="scale(0.015625)"/>
       </defs>
       <use xlink:href="#DejaVuSans-41"/>
       <use xlink:href="#DejaVuSans-70" transform="translate(68.408203 0)"/>
       <use xlink:href="#DejaVuSans-72" transform="translate(131.884766 0)"/>
      </g>
     </g>
    </g>
    <g id="xtick_5">
     <g id="line2d_5">
      <g>
       <use xlink:href="#m74d4ae1628" x="278.799504" y="575.455003" style="stroke: #000000; stroke-width: 0.8"/>
      </g>
     </g>
     <g id="text_5">
      <!-- May -->
      <g transform="translate(272.369252 606.445811) rotate(-45) scale(0.12 -0.12)">
       <defs>
        <path id="DejaVuSans-79" d="M 2059 -325 
Q 1816 -950 1584 -1140 
Q 1353 -1331 966 -1331 
L 506 -1331 
L 506 -850 
L 844 -850 
Q 1081 -850 1212 -737 
Q 1344 -625 1503 -206 
L 1606 56 
L 191 3500 
L 800 3500 
L 1894 763 
L 2988 3500 
L 3597 3500 
L 2059 -325 
z
" transform="scale(0.015625)"/>
       </defs>
       <use xlink:href="#DejaVuSans-4d"/>
       <use xlink:href="#DejaVuSans-61" transform="translate(86.279297 0)"/>
       <use xlink:href="#DejaVuSans-79" transform="translate(147.558594 0)"/>
      </g>
     </g>
    </g>
    <g id="xtick_6">
     <g id="line2d_6">
      <g>
       <use xlink:href="#m74d4ae1628" x="321.959835" y="575.455003" style="stroke: #000000; stroke-width: 0.8"/>
      </g>
     </g>
     <g id="text_6">
      <!-- Jun -->
      <g transform="translate(317.672116 602.160743) rotate(-45) scale(0.12 -0.12)">
       <defs>
        <path id="DejaVuSans-75" d="M 544 1381 
L 544 3500 
L 1119 3500 
L 1119 1403 
Q 1119 906 1312 657 
Q 1506 409 1894 409 
Q 2359 409 2629 706 
Q 2900 1003 2900 1516 
L 2900 3500 
L 3475 3500 
L 3475 0 
L 2900 0 
L 2900 538 
Q 2691 219 2414 64 
Q 2138 -91 1772 -91 
Q 1169 -91 856 284 
Q 544 659 544 1381 
z
M 1991 3584 
L 1991 3584 
z
" transform="scale(0.015625)"/>
       </defs>
       <use xlink:href="#DejaVuSans-4a"/>
       <use xlink:href="#DejaVuSans-75" transform="translate(29.492188 0)"/>
       <use xlink:href="#DejaVuSans-6e" transform="translate(92.871094 0)"/>
      </g>
     </g>
    </g>
    <g id="xtick_7">
     <g id="line2d_7">
      <g>
       <use xlink:href="#m74d4ae1628" x="365.120165" y="575.455003" style="stroke: #000000; stroke-width: 0.8"/>
      </g>
     </g>
     <g id="text_7">
      <!-- Jul -->
      <g transform="translate(362.342561 599.140514) rotate(-45) scale(0.12 -0.12)">
       <defs>
        <path id="DejaVuSans-6c" d="M 603 4863 
L 1178 4863 
L 1178 0 
L 603 0 
L 603 4863 
z
" transform="scale(0.015625)"/>
       </defs>
       <use xlink:href="#DejaVuSans-4a"/>
       <use xlink:href="#DejaVuSans-75" transform="translate(29.492188 0)"/>
       <use xlink:href="#DejaVuSans-6c" transform="translate(92.871094 0)"/>
      </g>
     </g>
    </g>
    <g id="xtick_8">
     <g id="line2d_8">
      <g>
       <use xlink:href="#m74d4ae1628" x="408.280496" y="575.455003" style="stroke: #000000; stroke-width: 0.8"/>
      </g>
     </g>
     <g id="text_8">
      <!-- Aug -->
      <g transform="translate(402.337484 605.471329) rotate(-45) scale(0.12 -0.12)">
       <defs>
        <path id="DejaVuSans-67" d="M 2906 1791 
Q 2906 2416 2648 2759 
Q 2391 3103 1925 3103 
Q 1463 3103 1205 2759 
Q 947 2416 947 1791 
Q 947 1169 1205 825 
Q 1463 481 1925 481 
Q 2391 481 2648 825 
Q 2906 1169 2906 1791 
z
M 3481 434 
Q 3481 -459 3084 -895 
Q 2688 -1331 1869 -1331 
Q 1566 -1331 1297 -1286 
Q 1028 -1241 775 -1147 
L 775 -588 
Q 1028 -725 1275 -790 
Q 1522 -856 1778 -856 
Q 2344 -856 2625 -561 
Q 2906 -266 2906 331 
L 2906 616 
Q 2728 306 2450 153 
Q 2172 0 1784 0 
Q 1141 0 747 490 
Q 353 981 353 1791 
Q 353 2603 747 3093 
Q 1141 3584 1784 3584 
Q 2172 3584 2450 3431 
Q 2728 3278 2906 2969 
L 2906 3500 
L 3481 3500 
L 3481 434 
z
" transform="scale(0.015625)"/>
       </defs>
       <use xlink:href="#DejaVuSans-41"/>
       <use xlink:href="#DejaVuSans-75" transform="translate(68.408203 0)"/>
       <use xlink:href="#DejaVuSans-67" transform="translate(131.787109 0)"/>
      </g>
     </g>
    </g>
    <g id="xtick_9">
     <g id="line2d_9">
      <g>
       <use xlink:href="#m74d4ae1628" x="451.440826" y="575.455003" style="stroke: #000000; stroke-width: 0.8"/>
      </g>
     </g>
     <g id="text_9">
      <!-- Sep -->
      <g transform="translate(445.784856 604.897247) rotate(-45) scale(0.12 -0.12)">
       <defs>
        <path id="DejaVuSans-53" d="M 3425 4513 
L 3425 3897 
Q 3066 4069 2747 4153 
Q 2428 4238 2131 4238 
Q 1616 4238 1336 4038 
Q 1056 3838 1056 3469 
Q 1056 3159 1242 3001 
Q 1428 2844 1947 2747 
L 2328 2669 
Q 3034 2534 3370 2195 
Q 3706 1856 3706 1288 
Q 3706 609 3251 259 
Q 2797 -91 1919 -91 
Q 1588 -91 1214 -16 
Q 841 59 441 206 
L 441 856 
Q 825 641 1194 531 
Q 1563 422 1919 422 
Q 2459 422 2753 634 
Q 3047 847 3047 1241 
Q 3047 1584 2836 1778 
Q 2625 1972 2144 2069 
L 1759 2144 
Q 1053 2284 737 2584 
Q 422 2884 422 3419 
Q 422 4038 858 4394 
Q 1294 4750 2059 4750 
Q 2388 4750 2728 4690 
Q 3069 4631 3425 4513 
z
" transform="scale(0.015625)"/>
       </defs>
       <use xlink:href="#DejaVuSans-53"/>
       <use xlink:href="#DejaVuSans-65" transform="translate(63.476562 0)"/>
       <use xlink:href="#DejaVuSans-70" transform="translate(125 0)"/>
      </g>
     </g>
    </g>
    <g id="xtick_10">
     <g id="line2d_10">
      <g>
       <use xlink:href="#m74d4ae1628" x="494.601157" y="575.455003" style="stroke: #000000; stroke-width: 0.8"/>
      </g>
     </g>
     <g id="text_10">
      <!-- Oct -->
      <g transform="translate(489.606773 603.574073) rotate(-45) scale(0.12 -0.12)">
       <defs>
        <path id="DejaVuSans-4f" d="M 2522 4238 
Q 1834 4238 1429 3725 
Q 1025 3213 1025 2328 
Q 1025 1447 1429 934 
Q 1834 422 2522 422 
Q 3209 422 3611 934 
Q 4013 1447 4013 2328 
Q 4013 3213 3611 3725 
Q 3209 4238 2522 4238 
z
M 2522 4750 
Q 3503 4750 4090 4092 
Q 4678 3434 4678 2328 
Q 4678 1225 4090 567 
Q 3503 -91 2522 -91 
Q 1538 -91 948 565 
Q 359 1222 359 2328 
Q 359 3434 948 4092 
Q 1538 4750 2522 4750 
z
" transform="scale(0.015625)"/>
        <path id="DejaVuSans-63" d="M 3122 3366 
L 3122 2828 
Q 2878 2963 2633 3030 
Q 2388 3097 2138 3097 
Q 1578 3097 1268 2742 
Q 959 2388 959 1747 
Q 959 1106 1268 751 
Q 1578 397 2138 397 
Q 2388 397 2633 464 
Q 2878 531 3122 666 
L 3122 134 
Q 2881 22 2623 -34 
Q 2366 -91 2075 -91 
Q 1284 -91 818 406 
Q 353 903 353 1747 
Q 353 2603 823 3093 
Q 1294 3584 2113 3584 
Q 2378 3584 2631 3529 
Q 2884 3475 3122 3366 
z
" transform="scale(0.015625)"/>
        <path id="DejaVuSans-74" d="M 1172 4494 
L 1172 3500 
L 2356 3500 
L 2356 3053 
L 1172 3053 
L 1172 1153 
Q 1172 725 1289 603 
Q 1406 481 1766 481 
L 2356 481 
L 2356 0 
L 1766 0 
Q 1100 0 847 248 
Q 594 497 594 1153 
L 594 3053 
L 172 3053 
L 172 3500 
L 594 3500 
L 594 4494 
L 1172 4494 
z
" transform="scale(0.015625)"/>
       </defs>
       <use xlink:href="#DejaVuSans-4f"/>
       <use xlink:href="#DejaVuSans-63" transform="translate(78.710938 0)"/>
       <use xlink:href="#DejaVuSans-74" transform="translate(133.691406 0)"/>
      </g>
     </g>
    </g>
    <g id="xtick_11">
     <g id="line2d_11">
      <g>
       <use xlink:href="#m74d4ae1628" x="537.761488" y="575.455003" style="stroke: #000000; stroke-width: 0.8"/>
      </g>
     </g>
     <g id="text_11">
      <!-- Nov -->
      <g transform="translate(531.821791 605.4647) rotate(-45) scale(0.12 -0.12)">
       <defs>
        <path id="DejaVuSans-4e" d="M 628 4666 
L 1478 4666 
L 3547 763 
L 3547 4666 
L 4159 4666 
L 4159 0 
L 3309 0 
L 1241 3903 
L 1241 0 
L 628 0 
L 628 4666 
z
" transform="scale(0.015625)"/>
        <path id="DejaVuSans-6f" d="M 1959 3097 
Q 1497 3097 1228 2736 
Q 959 2375 959 1747 
Q 959 1119 1226 758 
Q 1494 397 1959 397 
Q 2419 397 2687 759 
Q 2956 1122 2956 1747 
Q 2956 2369 2687 2733 
Q 2419 3097 1959 3097 
z
M 1959 3584 
Q 2709 3584 3137 3096 
Q 3566 2609 3566 1747 
Q 3566 888 3137 398 
Q 2709 -91 1959 -91 
Q 1206 -91 779 398 
Q 353 888 353 1747 
Q 353 2609 779 3096 
Q 1206 3584 1959 3584 
z
" transform="scale(0.015625)"/>
        <path id="DejaVuSans-76" d="M 191 3500 
L 800 3500 
L 1894 563 
L 2988 3500 
L 3597 3500 
L 2284 0 
L 1503 0 
L 191 3500 
z
" transform="scale(0.015625)"/>
       </defs>
       <use xlink:href="#DejaVuSans-4e"/>
       <use xlink:href="#DejaVuSans-6f" transform="translate(74.804688 0)"/>
       <use xlink:href="#DejaVuSans-76" transform="translate(135.986328 0)"/>
      </g>
     </g>
    </g>
    <g id="xtick_12">
     <g id="line2d_12">
      <g>
       <use xlink:href="#m74d4ae1628" x="580.921818" y="575.455003" style="stroke: #000000; stroke-width: 0.8"/>
      </g>
     </g>
     <g id="text_12">
      <!-- Dec -->
      <g transform="translate(575.053053 605.322837) rotate(-45) scale(0.12 -0.12)">
       <defs>
        <path id="DejaVuSans-44" d="M 1259 4147 
L 1259 519 
L 2022 519 
Q 2988 519 3436 956 
Q 3884 1394 3884 2338 
Q 3884 3275 3436 3711 
Q 2988 4147 2022 4147 
L 1259 4147 
z
M 628 4666 
L 1925 4666 
Q 3281 4666 3915 4102 
Q 4550 3538 4550 2338 
Q 4550 1131 3912 565 
Q 3275 0 1925 0 
L 628 0 
L 628 4666 
z
" transform="scale(0.015625)"/>
       </defs>
       <use xlink:href="#DejaVuSans-44"/>
       <use xlink:href="#DejaVuSans-65" transform="translate(77.001953 0)"/>
       <use xlink:href="#DejaVuSans-63" transform="translate(138.525391 0)"/>
      </g>
     </g>
    </g>
   </g>
   <g id="matplotlib.axis_2">
    <g id="ytick_1">
     <g id="line2d_13">
      <defs>
       <path id="m07641392bd" d="M 0 0 
L -3.5 0 
" style="stroke: #000000; stroke-width: 0.8"/>
      </defs>
      <g>
       <use xlink:href="#m07641392bd" x="82.42" y="575.455003" style="stroke: #000000; stroke-width: 0.8"/>
      </g>
     </g>
     <g id="text_13">
      <!-- −1.00 -->
      <g transform="translate(38.645625 580.014066) scale(0.12 -0.12)">
       <defs>
        <path id="DejaVuSans-2212" d="M 678 2272 
L 4684 2272 
L 4684 1741 
L 678 1741 
L 678 2272 
z
" transform="scale(0.015625)"/>
        <path id="DejaVuSans-31" d="M 794 531 
L 1825 531 
L 1825 4091 
L 703 3866 
L 703 4441 
L 1819 4666 
L 2450 4666 
L 2450 531 
L 3481 531 
L 3481 0 
L 794 0 
L 794 531 
z
" transform="scale(0.015625)"/>
        <path id="DejaVuSans-2e" d="M 684 794 
L 1344 794 
L 1344 0 
L 684 0 
L 684 794 
z
" transform="scale(0.015625)"/>
        <path id="DejaVuSans-30" d="M 2034 4250 
Q 1547 4250 1301 3770 
Q 1056 3291 1056 2328 
Q 1056 1369 1301 889 
Q 1547 409 2034 409 
Q 2525 409 2770 889 
Q 3016 1369 3016 2328 
Q 3016 3291 2770 3770 
Q 2525 4250 2034 4250 
z
M 2034 4750 
Q 2819 4750 3233 4129 
Q 3647 3509 3647 2328 
Q 3647 1150 3233 529 
Q 2819 -91 2034 -91 
Q 1250 -91 836 529 
Q 422 1150 422 2328 
Q 422 3509 836 4129 
Q 1250 4750 2034 4750 
z
" transform="scale(0.015625)"/>
       </defs>
       <use xlink:href="#DejaVuSans-2212"/>
       <use xlink:href="#DejaVuSans-31" transform="translate(83.789062 0)"/>
       <use xlink:href="#DejaVuSans-2e" transform="translate(147.412109 0)"/>
       <use xlink:href="#DejaVuSans-30" transform="translate(179.199219 0)"/>
       <use xlink:href="#DejaVuSans-30" transform="translate(242.822266 0)"/>
      </g>
     </g>
    </g>
    <g id="ytick_2">
     <g id="line2d_14">
      <g>
       <use xlink:href="#m07641392bd" x="82.42" y="510.033128" style="stroke: #000000; stroke-width: 0.8"/>
      </g>
     </g>
     <g id="text_14">
      <!-- −0.75 -->
      <g transform="translate(38.645625 514.59219) scale(0.12 -0.12)">
       <defs>
        <path id="DejaVuSans-37" d="M 525 4666 
L 3525 4666 
L 3525 4397 
L 1831 0 
L 1172 0 
L 2766 4134 
L 525 4134 
L 525 4666 
z
" transform="scale(0.015625)"/>
        <path id="DejaVuSans-35" d="M 691 4666 
L 3169 4666 
L 3169 4134 
L 1269 4134 
L 1269 2991 
Q 1406 3038 1543 3061 
Q 1681 3084 1819 3084 
Q 2600 3084 3056 2656 
Q 3513 2228 3513 1497 
Q 3513 744 3044 326 
Q 2575 -91 1722 -91 
Q 1428 -91 1123 -41 
Q 819 9 494 109 
L 494 744 
Q 775 591 1075 516 
Q 1375 441 1709 441 
Q 2250 441 2565 725 
Q 2881 1009 2881 1497 
Q 2881 1984 2565 2268 
Q 2250 2553 1709 2553 
Q 1456 2553 1204 2497 
Q 953 2441 691 2322 
L 691 4666 
z
" transform="scale(0.015625)"/>
       </defs>
       <use xlink:href="#DejaVuSans-2212"/>
       <use xlink:href="#DejaVuSans-30" transform="translate(83.789062 0)"/>
       <use xlink:href="#DejaVuSans-2e" transform="translate(147.412109 0)"/>
       <use xlink:href="#DejaVuSans-37" transform="translate(179.199219 0)"/>
       <use xlink:href="#DejaVuSans-35" transform="translate(242.822266 0)"/>
      </g>
     </g>
    </g>
    <g id="ytick_3">
     <g id="line2d_15">
      <g>
       <use xlink:href="#m07641392bd" x="82.42" y="444.611252" style="stroke: #000000; stroke-width: 0.8"/>
      </g>
     </g>
     <g id="text_15">
      <!-- −0.50 -->
      <g transform="translate(38.645625 449.170315) scale(0.12 -0.12)">
       <use xlink:href="#DejaVuSans-2212"/>
       <use xlink:href="#DejaVuSans-30" transform="translate(83.789062 0)"/>
       <use xlink:href="#DejaVuSans-2e" transform="translate(147.412109 0)"/>
       <use xlink:href="#DejaVuSans-35" transform="translate(179.199219 0)"/>
       <use xlink:href="#DejaVuSans-30" transform="translate(242.822266 0)"/>
      </g>
     </g>
    </g>
    <g id="ytick_4">
     <g id="line2d_16">
      <g>
       <use xlink:href="#m07641392bd" x="82.42" y="379.189377" style="stroke: #000000; stroke-width: 0.8"/>
      </g>
     </g>
     <g id="text_16">
      <!-- −0.25 -->
      <g transform="translate(38.645625 383.74844) scale(0.12 -0.12)">
       <defs>
        <path id="DejaVuSans-32" d="M 1228 531 
L 3431 531 
L 3431 0 
L 469 0 
L 469 531 
Q 828 903 1448 1529 
Q 2069 2156 2228 2338 
Q 2531 2678 2651 2914 
Q 2772 3150 2772 3378 
Q 2772 3750 2511 3984 
Q 2250 4219 1831 4219 
Q 1534 4219 1204 4116 
Q 875 4013 500 3803 
L 500 4441 
Q 881 4594 1212 4672 
Q 1544 4750 1819 4750 
Q 2544 4750 2975 4387 
Q 3406 4025 3406 3419 
Q 3406 3131 3298 2873 
Q 3191 2616 2906 2266 
Q 2828 2175 2409 1742 
Q 1991 1309 1228 531 
z
" transform="scale(0.015625)"/>
       </defs>
       <use xlink:href="#DejaVuSans-2212"/>
       <use xlink:href="#DejaVuSans-30" transform="translate(83.789062 0)"/>
       <use xlink:href="#DejaVuSans-2e" transform="translate(147.412109 0)"/>
       <use xlink:href="#DejaVuSans-32" transform="translate(179.199219 0)"/>
       <use xlink:href="#DejaVuSans-35" transform="translate(242.822266 0)"/>
      </g>
     </g>
    </g>
    <g id="ytick_5">
     <g id="line2d_17">
      <g>
       <use xlink:href="#m07641392bd" x="82.42" y="313.767502" style="stroke: #000000; stroke-width: 0.8"/>
      </g>
     </g>
     <g id="text_17">
      <!-- 0.00 -->
      <g transform="translate(48.70125 318.326564) scale(0.12 -0.12)">
       <use xlink:href="#DejaVuSans-30"/>
       <use xlink:href="#DejaVuSans-2e" transform="translate(63.623047 0)"/>
       <use xlink:href="#DejaVuSans-30" transform="translate(95.410156 0)"/>
       <use xlink:href="#DejaVuSans-30" transform="translate(159.033203 0)"/>
      </g>
     </g>
    </g>
    <g id="ytick_6">
     <g id="line2d_18">
      <g>
       <use xlink:href="#m07641392bd" x="82.42" y="248.345626" style="stroke: #000000; stroke-width: 0.8"/>
      </g>
     </g>
     <g id="text_18">
      <!-- 0.25 -->
      <g transform="translate(48.70125 252.904689) scale(0.12 -0.12)">
       <use xlink:href="#DejaVuSans-30"/>
       <use xlink:href="#DejaVuSans-2e" transform="translate(63.623047 0)"/>
       <use xlink:href="#DejaVuSans-32" transform="translate(95.410156 0)"/>
       <use xlink:href="#DejaVuSans-35" transform="translate(159.033203 0)"/>
      </g>
     </g>
    </g>
    <g id="ytick_7">
     <g id="line2d_19">
      <g>
       <use xlink:href="#m07641392bd" x="82.42" y="182.923751" style="stroke: #000000; stroke-width: 0.8"/>
      </g>
     </g>
     <g id="text_19">
      <!-- 0.50 -->
      <g transform="translate(48.70125 187.482813) scale(0.12 -0.12)">
       <use xlink:href="#DejaVuSans-30"/>
       <use xlink:href="#DejaVuSans-2e" transform="translate(63.623047 0)"/>
       <use xlink:href="#DejaVuSans-35" transform="translate(95.410156 0)"/>
       <use xlink:href="#DejaVuSans-30" transform="translate(159.033203 0)"/>
      </g>
     </g>
    </g>
    <g id="ytick_8">
     <g id="line2d_20">
      <g>
       <use xlink:href="#m07641392bd" x="82.42" y="117.501875" style="stroke: #000000; stroke-width: 0.8"/>
      </g>
     </g>
     <g id="text_20">
      <!-- 0.75 -->
      <g transform="translate(48.70125 122.060938) scale(0.12 -0.12)">
       <use xlink:href="#DejaVuSans-30"/>
       <use xlink:href="#DejaVuSans-2e" transform="translate(63.623047 0)"/>
       <use xlink:href="#DejaVuSans-37" transform="translate(95.410156 0)"/>
       <use xlink:href="#DejaVuSans-35" transform="translate(159.033203 0)"/>
      </g>
     </g>
    </g>
    <g id="ytick_9">
     <g id="line2d_21">
      <g>
       <use xlink:href="#m07641392bd" x="82.42" y="52.08" style="stroke: #000000; stroke-width: 0.8"/>
      </g>
     </g>
     <g id="text_21">
      <!-- 1.00 -->
      <g transform="translate(48.70125 56.639062) scale(0.12 -0.12)">
       <use xlink:href="#DejaVuSans-31"/>
       <use xlink:href="#DejaVuSans-2e" transform="translate(63.623047 0)"/>
       <use xlink:href="#DejaVuSans-30" transform="translate(95.410156 0)"/>
       <use xlink:href="#DejaVuSans-30" transform="translate(159.033203 0)"/>
      </g>
     </g>
    </g>
   </g>
   <g id="patch_3">
    <path d="M 82.42 575.455003 
L 82.42 52.08 
" style="fill: none; stroke: #000000; stroke-width: 0.8; stroke-linejoin: miter; stroke-linecap: square"/>
   </g>
   <g id="patch_4">
    <path d="M 604.66 575.455003 
L 604.66 52.08 
" style="fill: none; stroke: #000000; stroke-width: 0.8; stroke-linejoin: miter; stroke-linecap: square"/>
   </g>
   <g id="patch_5">
    <path d="M 82.42 575.455003 
L 604.66 575.455003 
" style="fill: none; stroke: #000000; stroke-width: 0.8; stroke-linejoin: miter; stroke-linecap: square"/>
   </g>
   <g id="patch_6">
    <path d="M 82.42 52.08 
L 604.66 52.08 
" style="fill: none; stroke: #000000; stroke-width: 0.8; stroke-linejoin: miter; stroke-linecap: square"/>
   </g>
   <g id="text_22">
    <!-- Obs -->
    <g transform="translate(327.99625 46.08) scale(0.16 -0.16)">
     <defs>
      <path id="DejaVuSans-73" d="M 2834 3397 
L 2834 2853 
Q 2591 2978 2328 3040 
Q 2066 3103 1784 3103 
Q 1356 3103 1142 2972 
Q 928 2841 928 2578 
Q 928 2378 1081 2264 
Q 1234 2150 1697 2047 
L 1894 2003 
Q 2506 1872 2764 1633 
Q 3022 1394 3022 966 
Q 3022 478 2636 193 
Q 2250 -91 1575 -91 
Q 1294 -91 989 -36 
Q 684 19 347 128 
L 347 722 
Q 666 556 975 473 
Q 1284 391 1588 391 
Q 1994 391 2212 530 
Q 2431 669 2431 922 
Q 2431 1156 2273 1281 
Q 2116 1406 1581 1522 
L 1381 1569 
Q 847 1681 609 1914 
Q 372 2147 372 2553 
Q 372 3047 722 3315 
Q 1072 3584 1716 3584 
Q 2034 3584 2315 3537 
Q 2597 3491 2834 3397 
z
" transform="scale(0.015625)"/>
     </defs>
     <use xlink:href="#DejaVuSans-4f"/>
     <use xlink:href="#DejaVuSans-62" transform="translate(78.710938 0)"/>
     <use xlink:href="#DejaVuSans-73" transform="translate(142.1875 0)"/>
    </g>
   </g>
   <g id="legend_1">
    <g id="patch_7">
     <path d="M 504.76 89.456562 
L 597.66 89.456562 
Q 599.66 89.456562 599.66 87.456562 
L 599.66 59.08 
Q 599.66 57.08 597.66 57.08 
L 504.76 57.08 
Q 502.76 57.08 502.76 59.08 
L 502.76 87.456562 
Q 502.76 89.456562 504.76 89.456562 
z
" style="fill: #ffffff; opacity: 0.8; stroke: #cccccc; stroke-linejoin: miter"/>
    </g>
    <g id="line2d_22">
     <path d="M 506.76 65.178437 
L 516.76 65.178437 
L 526.76 65.178437 
" style="fill: none; stroke: #000000; stroke-width: 1.5; stroke-linecap: square"/>
     <defs>
      <path id="m37b6a64944" d="M -3 3 
L 3 3 
L 3 -3 
L -3 -3 
z
" style="stroke: #000000; stroke-linejoin: miter"/>
     </defs>
     <g>
      <use xlink:href="#m37b6a64944" x="516.76" y="65.178437" style="stroke: #000000; stroke-linejoin: miter"/>
     </g>
    </g>
    <g id="text_23">
     <!-- Kendall $\tau$ -->
     <g transform="translate(534.76 68.678437) scale(0.1 -0.1)">
      <defs>
       <path id="DejaVuSans-4b" d="M 628 4666 
L 1259 4666 
L 1259 2694 
L 3353 4666 
L 4166 4666 
L 1850 2491 
L 4331 0 
L 3500 0 
L 1259 2247 
L 1259 0 
L 628 0 
L 628 4666 
z
" transform="scale(0.015625)"/>
       <path id="DejaVuSans-64" d="M 2906 2969 
L 2906 4863 
L 3481 4863 
L 3481 0 
L 2906 0 
L 2906 525 
Q 2725 213 2448 61 
Q 2172 -91 1784 -91 
Q 1150 -91 751 415 
Q 353 922 353 1747 
Q 353 2572 751 3078 
Q 1150 3584 1784 3584 
Q 2172 3584 2448 3432 
Q 2725 3281 2906 2969 
z
M 947 1747 
Q 947 1113 1208 752 
Q 1469 391 1925 391 
Q 2381 391 2643 752 
Q 2906 1113 2906 1747 
Q 2906 2381 2643 2742 
Q 2381 3103 1925 3103 
Q 1469 3103 1208 2742 
Q 947 2381 947 1747 
z
" transform="scale(0.015625)"/>
       <path id="DejaVuSans-20" transform="scale(0.015625)"/>
       <path id="DejaVuSans-Oblique-3c4" d="M 2103 638 
Q 2188 488 2525 488 
L 2800 488 
L 2706 0 
L 2363 0 
Q 1800 0 1600 300 
Q 1403 606 1534 1269 
L 1856 2925 
L 541 2925 
L 653 3500 
L 3881 3500 
L 3769 2925 
L 2444 2925 
L 2113 1234 
Q 2025 781 2103 638 
z
" transform="scale(0.015625)"/>
      </defs>
      <use xlink:href="#DejaVuSans-4b" transform="translate(0 0.015625)"/>
      <use xlink:href="#DejaVuSans-65" transform="translate(65.576172 0.015625)"/>
      <use xlink:href="#DejaVuSans-6e" transform="translate(127.099609 0.015625)"/>
      <use xlink:href="#DejaVuSans-64" transform="translate(190.478516 0.015625)"/>
      <use xlink:href="#DejaVuSans-61" transform="translate(253.955078 0.015625)"/>
      <use xlink:href="#DejaVuSans-6c" transform="translate(315.234375 0.015625)"/>
      <use xlink:href="#DejaVuSans-6c" transform="translate(343.017578 0.015625)"/>
      <use xlink:href="#DejaVuSans-20" transform="translate(370.800781 0.015625)"/>
      <use xlink:href="#DejaVuSans-Oblique-3c4" transform="translate(402.587891 0.015625)"/>
     </g>
    </g>
    <g id="line2d_23">
     <path d="M 506.76 79.856562 
L 516.76 79.856562 
L 526.76 79.856562 
" style="fill: none; stroke: #000000; stroke-width: 1.5; stroke-linecap: square"/>
     <defs>
      <path id="m042c5b2f5d" d="M -0 4.242641 
L 2.545584 0 
L 0 -4.242641 
L -2.545584 -0 
z
" style="stroke: #000000; stroke-linejoin: miter"/>
     </defs>
     <g>
      <use xlink:href="#m042c5b2f5d" x="516.76" y="79.856562" style="stroke: #000000; stroke-linejoin: miter"/>
     </g>
    </g>
    <g id="text_24">
     <!-- Spearman $\rho$ -->
     <g transform="translate(534.76 83.356562) scale(0.1 -0.1)">
      <defs>
       <path id="DejaVuSans-6d" d="M 3328 2828 
Q 3544 3216 3844 3400 
Q 4144 3584 4550 3584 
Q 5097 3584 5394 3201 
Q 5691 2819 5691 2113 
L 5691 0 
L 5113 0 
L 5113 2094 
Q 5113 2597 4934 2840 
Q 4756 3084 4391 3084 
Q 3944 3084 3684 2787 
Q 3425 2491 3425 1978 
L 3425 0 
L 2847 0 
L 2847 2094 
Q 2847 2600 2669 2842 
Q 2491 3084 2119 3084 
Q 1678 3084 1418 2786 
Q 1159 2488 1159 1978 
L 1159 0 
L 581 0 
L 581 3500 
L 1159 3500 
L 1159 2956 
Q 1356 3278 1631 3431 
Q 1906 3584 2284 3584 
Q 2666 3584 2933 3390 
Q 3200 3197 3328 2828 
z
" transform="scale(0.015625)"/>
       <path id="DejaVuSans-Oblique-3c1" d="M 1203 2875 
Q 1453 3194 1981 3475 
Q 2188 3584 2756 3584 
Q 3394 3584 3694 3078 
Q 3994 2572 3834 1747 
Q 3672 922 3175 415 
Q 2678 -91 2041 -91 
Q 1656 -91 1409 63 
Q 1163 213 1044 525 
L 681 -1331 
L 103 -1331 
L 697 1716 
Q 838 2438 1203 2875 
z
M 3238 1747 
Q 3359 2381 3169 2744 
Q 2978 3103 2522 3103 
Q 2066 3103 1734 2744 
Q 1403 2381 1281 1747 
Q 1156 1113 1347 750 
Q 1538 391 1994 391 
Q 2450 391 2781 750 
Q 3113 1113 3238 1747 
z
" transform="scale(0.015625)"/>
      </defs>
      <use xlink:href="#DejaVuSans-53" transform="translate(0 0.78125)"/>
      <use xlink:href="#DejaVuSans-70" transform="translate(63.476562 0.78125)"/>
      <use xlink:href="#DejaVuSans-65" transform="translate(126.953125 0.78125)"/>
      <use xlink:href="#DejaVuSans-61" transform="translate(188.476562 0.78125)"/>
      <use xlink:href="#DejaVuSans-72" transform="translate(249.755859 0.78125)"/>
      <use xlink:href="#DejaVuSans-6d" transform="translate(290.869141 0.78125)"/>
      <use xlink:href="#DejaVuSans-61" transform="translate(388.28125 0.78125)"/>
      <use xlink:href="#DejaVuSans-6e" transform="translate(449.560547 0.78125)"/>
      <use xlink:href="#DejaVuSans-20" transform="translate(512.939453 0.78125)"/>
      <use xlink:href="#DejaVuSans-Oblique-3c1" transform="translate(544.726562 0.78125)"/>
     </g>
    </g>
   </g>
   <g id="LineCollection_1">
    <path d="M 106.158182 313.767502 
L 580.921818 313.767502 
" clip-path="url(#pd2e7332b92)" style="fill: none; stroke-dasharray: 5.55,2.4; stroke-dashoffset: 0; stroke: #ff0000; stroke-width: 1.5"/>
   </g>
   <g id="line2d_24">
    <path d="M 106.158182 258.18334 
L 149.318512 330.080489 
L 192.478843 325.662388 
L 235.639174 366.444856 
L 278.799504 377.320181 
L 321.959835 351.15143 
L 365.120165 353.870262 
L 408.280496 327.536056 
L 451.440826 319.205164 
L 494.601157 287.420269 
L 537.761488 316.486333 
L 580.921818 310.368963 
" clip-path="url(#pd2e7332b92)" style="fill: none; stroke: #000000; stroke-width: 1.5; stroke-linecap: square"/>
    <g clip-path="url(#pd2e7332b92)">
     <use xlink:href="#m37b6a64944" x="106.158182" y="258.18334" style="stroke: #000000; stroke-linejoin: miter"/>
     <use xlink:href="#m37b6a64944" x="149.318512" y="330.080489" style="stroke: #000000; stroke-linejoin: miter"/>
     <use xlink:href="#m37b6a64944" x="192.478843" y="325.662388" style="stroke: #000000; stroke-linejoin: miter"/>
     <use xlink:href="#m37b6a64944" x="235.639174" y="366.444856" style="stroke: #000000; stroke-linejoin: miter"/>
     <use xlink:href="#m37b6a64944" x="278.799504" y="377.320181" style="stroke: #000000; stroke-linejoin: miter"/>
     <use xlink:href="#m37b6a64944" x="321.959835" y="351.15143" style="stroke: #000000; stroke-linejoin: miter"/>
     <use xlink:href="#m37b6a64944" x="365.120165" y="353.870262" style="stroke: #000000; stroke-linejoin: miter"/>
     <use xlink:href="#m37b6a64944" x="408.280496" y="327.536056" style="stroke: #000000; stroke-linejoin: miter"/>
     <use xlink:href="#m37b6a64944" x="451.440826" y="319.205164" style="stroke: #000000; stroke-linejoin: miter"/>
     <use xlink:href="#m37b6a64944" x="494.601157" y="287.420269" style="stroke: #000000; stroke-linejoin: miter"/>
     <use xlink:href="#m37b6a64944" x="537.761488" y="316.486333" style="stroke: #000000; stroke-linejoin: miter"/>
     <use xlink:href="#m37b6a64944" x="580.921818" y="310.368963" style="stroke: #000000; stroke-linejoin: miter"/>
    </g>
   </g>
   <g id="line2d_25">
    <path d="M 106.158182 234.821669 
L 149.318512 334.19451 
L 192.478843 335.714909 
L 235.639174 393.078669 
L 278.799504 407.996467 
L 321.959835 373.402917 
L 365.120165 375.38838 
L 408.280496 337.441413 
L 451.440826 322.603703 
L 494.601157 277.134203 
L 537.761488 325.948581 
L 580.921818 311.263315 
" clip-path="url(#pd2e7332b92)" style="fill: none; stroke: #000000; stroke-width: 1.5; stroke-linecap: square"/>
    <g clip-path="url(#pd2e7332b92)">
     <use xlink:href="#m042c5b2f5d" x="106.158182" y="234.821669" style="stroke: #000000; stroke-linejoin: miter"/>
     <use xlink:href="#m042c5b2f5d" x="149.318512" y="334.19451" style="stroke: #000000; stroke-linejoin: miter"/>
     <use xlink:href="#m042c5b2f5d" x="192.478843" y="335.714909" style="stroke: #000000; stroke-linejoin: miter"/>
     <use xlink:href="#m042c5b2f5d" x="235.639174" y="393.078669" style="stroke: #000000; stroke-linejoin: miter"/>
     <use xlink:href="#m042c5b2f5d" x="278.799504" y="407.996467" style="stroke: #000000; stroke-linejoin: miter"/>
     <use xlink:href="#m042c5b2f5d" x="321.959835" y="373.402917" style="stroke: #000000; stroke-linejoin: miter"/>
     <use xlink:href="#m042c5b2f5d" x="365.120165" y="375.38838" style="stroke: #000000; stroke-linejoin: miter"/>
     <use xlink:href="#m042c5b2f5d" x="408.280496" y="337.441413" style="stroke: #000000; stroke-linejoin: miter"/>
     <use xlink:href="#m042c5b2f5d" x="451.440826" y="322.603703" style="stroke: #000000; stroke-linejoin: miter"/>
     <use xlink:href="#m042c5b2f5d" x="494.601157" y="277.134203" style="stroke: #000000; stroke-linejoin: miter"/>
     <use xlink:href="#m042c5b2f5d" x="537.761488" y="325.948581" style="stroke: #000000; stroke-linejoin: miter"/>
     <use xlink:href="#m042c5b2f5d" x="580.921818" y="311.263315" style="stroke: #000000; stroke-linejoin: miter"/>
    </g>
   </g>
  </g>
  <g id="axes_2">
   <g id="patch_8">
    <path d="M 618.96 575.455003 
L 1141.2 575.455003 
L 1141.2 52.08 
L 618.96 52.08 
z
" style="fill: #ffffff"/>
   </g>
   <g id="matplotlib.axis_3">
    <g id="xtick_13">
     <g id="line2d_26">
      <g>
       <use xlink:href="#m74d4ae1628" x="642.698182" y="575.455003" style="stroke: #000000; stroke-width: 0.8"/>
      </g>
     </g>
     <g id="text_25">
      <!-- Jan -->
      <g transform="translate(638.499293 601.983083) rotate(-45) scale(0.12 -0.12)">
       <use xlink:href="#DejaVuSans-4a"/>
       <use xlink:href="#DejaVuSans-61" transform="translate(29.492188 0)"/>
       <use xlink:href="#DejaVuSans-6e" transform="translate(90.771484 0)"/>
      </g>
     </g>
    </g>
    <g id="xtick_14">
     <g id="line2d_27">
      <g>
       <use xlink:href="#m74d4ae1628" x="685.858512" y="575.455003" style="stroke: #000000; stroke-width: 0.8"/>
      </g>
     </g>
     <g id="text_26">
      <!-- Feb -->
      <g transform="translate(680.68912 603.924091) rotate(-45) scale(0.12 -0.12)">
       <use xlink:href="#DejaVuSans-46"/>
       <use xlink:href="#DejaVuSans-65" transform="translate(52.019531 0)"/>
       <use xlink:href="#DejaVuSans-62" transform="translate(113.542969 0)"/>
      </g>
     </g>
    </g>
    <g id="xtick_15">
     <g id="line2d_28">
      <g>
       <use xlink:href="#m74d4ae1628" x="729.018843" y="575.455003" style="stroke: #000000; stroke-width: 0.8"/>
      </g>
     </g>
     <g id="text_27">
      <!-- Mar -->
      <g transform="translate(723.355581 604.911831) rotate(-45) scale(0.12 -0.12)">
       <use xlink:href="#DejaVuSans-4d"/>
       <use xlink:href="#DejaVuSans-61" transform="translate(86.279297 0)"/>
       <use xlink:href="#DejaVuSans-72" transform="translate(147.558594 0)"/>
      </g>
     </g>
    </g>
    <g id="xtick_16">
     <g id="line2d_29">
      <g>
       <use xlink:href="#m74d4ae1628" x="772.179174" y="575.455003" style="stroke: #000000; stroke-width: 0.8"/>
      </g>
     </g>
     <g id="text_28">
      <!-- Apr -->
      <g transform="translate(767.180812 603.582028) rotate(-45) scale(0.12 -0.12)">
       <use xlink:href="#DejaVuSans-41"/>
       <use xlink:href="#DejaVuSans-70" transform="translate(68.408203 0)"/>
       <use xlink:href="#DejaVuSans-72" transform="translate(131.884766 0)"/>
      </g>
     </g>
    </g>
    <g id="xtick_17">
     <g id="line2d_30">
      <g>
       <use xlink:href="#m74d4ae1628" x="815.339504" y="575.455003" style="stroke: #000000; stroke-width: 0.8"/>
      </g>
     </g>
     <g id="text_29">
      <!-- May -->
      <g transform="translate(808.909252 606.445811) rotate(-45) scale(0.12 -0.12)">
       <use xlink:href="#DejaVuSans-4d"/>
       <use xlink:href="#DejaVuSans-61" transform="translate(86.279297 0)"/>
       <use xlink:href="#DejaVuSans-79" transform="translate(147.558594 0)"/>
      </g>
     </g>
    </g>
    <g id="xtick_18">
     <g id="line2d_31">
      <g>
       <use xlink:href="#m74d4ae1628" x="858.499835" y="575.455003" style="stroke: #000000; stroke-width: 0.8"/>
      </g>
     </g>
     <g id="text_30">
      <!-- Jun -->
      <g transform="translate(854.212116 602.160743) rotate(-45) scale(0.12 -0.12)">
       <use xlink:href="#DejaVuSans-4a"/>
       <use xlink:href="#DejaVuSans-75" transform="translate(29.492188 0)"/>
       <use xlink:href="#DejaVuSans-6e" transform="translate(92.871094 0)"/>
      </g>
     </g>
    </g>
    <g id="xtick_19">
     <g id="line2d_32">
      <g>
       <use xlink:href="#m74d4ae1628" x="901.660165" y="575.455003" style="stroke: #000000; stroke-width: 0.8"/>
      </g>
     </g>
     <g id="text_31">
      <!-- Jul -->
      <g transform="translate(898.882561 599.140514) rotate(-45) scale(0.12 -0.12)">
       <use xlink:href="#DejaVuSans-4a"/>
       <use xlink:href="#DejaVuSans-75" transform="translate(29.492188 0)"/>
       <use xlink:href="#DejaVuSans-6c" transform="translate(92.871094 0)"/>
      </g>
     </g>
    </g>
    <g id="xtick_20">
     <g id="line2d_33">
      <g>
       <use xlink:href="#m74d4ae1628" x="944.820496" y="575.455003" style="stroke: #000000; stroke-width: 0.8"/>
      </g>
     </g>
     <g id="text_32">
      <!-- Aug -->
      <g transform="translate(938.877484 605.471329) rotate(-45) scale(0.12 -0.12)">
       <use xlink:href="#DejaVuSans-41"/>
       <use xlink:href="#DejaVuSans-75" transform="translate(68.408203 0)"/>
       <use xlink:href="#DejaVuSans-67" transform="translate(131.787109 0)"/>
      </g>
     </g>
    </g>
    <g id="xtick_21">
     <g id="line2d_34">
      <g>
       <use xlink:href="#m74d4ae1628" x="987.980826" y="575.455003" style="stroke: #000000; stroke-width: 0.8"/>
      </g>
     </g>
     <g id="text_33">
      <!-- Sep -->
      <g transform="translate(982.324856 604.897247) rotate(-45) scale(0.12 -0.12)">
       <use xlink:href="#DejaVuSans-53"/>
       <use xlink:href="#DejaVuSans-65" transform="translate(63.476562 0)"/>
       <use xlink:href="#DejaVuSans-70" transform="translate(125 0)"/>
      </g>
     </g>
    </g>
    <g id="xtick_22">
     <g id="line2d_35">
      <g>
       <use xlink:href="#m74d4ae1628" x="1031.141157" y="575.455003" style="stroke: #000000; stroke-width: 0.8"/>
      </g>
     </g>
     <g id="text_34">
      <!-- Oct -->
      <g transform="translate(1026.146773 603.574073) rotate(-45) scale(0.12 -0.12)">
       <use xlink:href="#DejaVuSans-4f"/>
       <use xlink:href="#DejaVuSans-63" transform="translate(78.710938 0)"/>
       <use xlink:href="#DejaVuSans-74" transform="translate(133.691406 0)"/>
      </g>
     </g>
    </g>
    <g id="xtick_23">
     <g id="line2d_36">
      <g>
       <use xlink:href="#m74d4ae1628" x="1074.301488" y="575.455003" style="stroke: #000000; stroke-width: 0.8"/>
      </g>
     </g>
     <g id="text_35">
      <!-- Nov -->
      <g transform="translate(1068.361791 605.4647) rotate(-45) scale(0.12 -0.12)">
       <use xlink:href="#DejaVuSans-4e"/>
       <use xlink:href="#DejaVuSans-6f" transform="translate(74.804688 0)"/>
       <use xlink:href="#DejaVuSans-76" transform="translate(135.986328 0)"/>
      </g>
     </g>
    </g>
    <g id="xtick_24">
     <g id="line2d_37">
      <g>
       <use xlink:href="#m74d4ae1628" x="1117.461818" y="575.455003" style="stroke: #000000; stroke-width: 0.8"/>
      </g>
     </g>
     <g id="text_36">
      <!-- Dec -->
      <g transform="translate(1111.593053 605.322837) rotate(-45) scale(0.12 -0.12)">
       <use xlink:href="#DejaVuSans-44"/>
       <use xlink:href="#DejaVuSans-65" transform="translate(77.001953 0)"/>
       <use xlink:href="#DejaVuSans-63" transform="translate(138.525391 0)"/>
      </g>
     </g>
    </g>
   </g>
   <g id="matplotlib.axis_4">
    <g id="ytick_10">
     <g id="line2d_38">
      <g>
       <use xlink:href="#m07641392bd" x="618.96" y="575.455003" style="stroke: #000000; stroke-width: 0.8"/>
      </g>
     </g>
    </g>
    <g id="ytick_11">
     <g id="line2d_39">
      <g>
       <use xlink:href="#m07641392bd" x="618.96" y="510.033128" style="stroke: #000000; stroke-width: 0.8"/>
      </g>
     </g>
    </g>
    <g id="ytick_12">
     <g id="line2d_40">
      <g>
       <use xlink:href="#m07641392bd" x="618.96" y="444.611252" style="stroke: #000000; stroke-width: 0.8"/>
      </g>
     </g>
    </g>
    <g id="ytick_13">
     <g id="line2d_41">
      <g>
       <use xlink:href="#m07641392bd" x="618.96" y="379.189377" style="stroke: #000000; stroke-width: 0.8"/>
      </g>
     </g>
    </g>
    <g id="ytick_14">
     <g id="line2d_42">
      <g>
       <use xlink:href="#m07641392bd" x="618.96" y="313.767502" style="stroke: #000000; stroke-width: 0.8"/>
      </g>
     </g>
    </g>
    <g id="ytick_15">
     <g id="line2d_43">
      <g>
       <use xlink:href="#m07641392bd" x="618.96" y="248.345626" style="stroke: #000000; stroke-width: 0.8"/>
      </g>
     </g>
    </g>
    <g id="ytick_16">
     <g id="line2d_44">
      <g>
       <use xlink:href="#m07641392bd" x="618.96" y="182.923751" style="stroke: #000000; stroke-width: 0.8"/>
      </g>
     </g>
    </g>
    <g id="ytick_17">
     <g id="line2d_45">
      <g>
       <use xlink:href="#m07641392bd" x="618.96" y="117.501875" style="stroke: #000000; stroke-width: 0.8"/>
      </g>
     </g>
    </g>
    <g id="ytick_18">
     <g id="line2d_46">
      <g>
       <use xlink:href="#m07641392bd" x="618.96" y="52.08" style="stroke: #000000; stroke-width: 0.8"/>
      </g>
     </g>
    </g>
   </g>
   <g id="patch_9">
    <path d="M 618.96 575.455003 
L 618.96 52.08 
" style="fill: none; stroke: #000000; stroke-width: 0.8; stroke-linejoin: miter; stroke-linecap: square"/>
   </g>
   <g id="patch_10">
    <path d="M 1141.2 575.455003 
L 1141.2 52.08 
" style="fill: none; stroke: #000000; stroke-width: 0.8; stroke-linejoin: miter; stroke-linecap: square"/>
   </g>
   <g id="patch_11">
    <path d="M 618.96 575.455003 
L 1141.2 575.455003 
" style="fill: none; stroke: #000000; stroke-width: 0.8; stroke-linejoin: miter; stroke-linecap: square"/>
   </g>
   <g id="patch_12">
    <path d="M 618.96 52.08 
L 1141.2 52.08 
" style="fill: none; stroke: #000000; stroke-width: 0.8; stroke-linejoin: miter; stroke-linecap: square"/>
   </g>
   <g id="text_37">
    <!-- Synth -->
    <g transform="translate(856.99 46.08) scale(0.16 -0.16)">
     <defs>
      <path id="DejaVuSans-68" d="M 3513 2113 
L 3513 0 
L 2938 0 
L 2938 2094 
Q 2938 2591 2744 2837 
Q 2550 3084 2163 3084 
Q 1697 3084 1428 2787 
Q 1159 2491 1159 1978 
L 1159 0 
L 581 0 
L 581 4863 
L 1159 4863 
L 1159 2956 
Q 1366 3272 1645 3428 
Q 1925 3584 2291 3584 
Q 2894 3584 3203 3211 
Q 3513 2838 3513 2113 
z
" transform="scale(0.015625)"/>
     </defs>
     <use xlink:href="#DejaVuSans-53"/>
     <use xlink:href="#DejaVuSans-79" transform="translate(63.476562 0)"/>
     <use xlink:href="#DejaVuSans-6e" transform="translate(122.65625 0)"/>
     <use xlink:href="#DejaVuSans-74" transform="translate(186.035156 0)"/>
     <use xlink:href="#DejaVuSans-68" transform="translate(225.244141 0)"/>
    </g>
   </g>
   <g id="legend_2">
    <g id="patch_13">
     <path d="M 1041.3 89.456562 
L 1134.2 89.456562 
Q 1136.2 89.456562 1136.2 87.456562 
L 1136.2 59.08 
Q 1136.2 57.08 1134.2 57.08 
L 1041.3 57.08 
Q 1039.3 57.08 1039.3 59.08 
L 1039.3 87.456562 
Q 1039.3 89.456562 1041.3 89.456562 
z
" style="fill: #ffffff; opacity: 0.8; stroke: #cccccc; stroke-linejoin: miter"/>
    </g>
    <g id="line2d_47">
     <path d="M 1043.3 65.178437 
L 1053.3 65.178437 
L 1063.3 65.178437 
" style="fill: none; stroke: #808080; stroke-width: 1.5; stroke-linecap: square"/>
     <defs>
      <path id="maf0d29b360" d="M -3 3 
L 3 3 
L 3 -3 
L -3 -3 
z
" style="stroke: #808080; stroke-linejoin: miter"/>
     </defs>
     <g>
      <use xlink:href="#maf0d29b360" x="1053.3" y="65.178437" style="fill: #808080; stroke: #808080; stroke-linejoin: miter"/>
     </g>
    </g>
    <g id="text_38">
     <!-- Kendall $\tau$ -->
     <g transform="translate(1071.3 68.678437) scale(0.1 -0.1)">
      <use xlink:href="#DejaVuSans-4b" transform="translate(0 0.015625)"/>
      <use xlink:href="#DejaVuSans-65" transform="translate(65.576172 0.015625)"/>
      <use xlink:href="#DejaVuSans-6e" transform="translate(127.099609 0.015625)"/>
      <use xlink:href="#DejaVuSans-64" transform="translate(190.478516 0.015625)"/>
      <use xlink:href="#DejaVuSans-61" transform="translate(253.955078 0.015625)"/>
      <use xlink:href="#DejaVuSans-6c" transform="translate(315.234375 0.015625)"/>
      <use xlink:href="#DejaVuSans-6c" transform="translate(343.017578 0.015625)"/>
      <use xlink:href="#DejaVuSans-20" transform="translate(370.800781 0.015625)"/>
      <use xlink:href="#DejaVuSans-Oblique-3c4" transform="translate(402.587891 0.015625)"/>
     </g>
    </g>
    <g id="line2d_48">
     <path d="M 1043.3 79.856562 
L 1053.3 79.856562 
L 1063.3 79.856562 
" style="fill: none; stroke: #808080; stroke-width: 1.5; stroke-linecap: square"/>
     <defs>
      <path id="m8b55417d76" d="M -0 4.242641 
L 2.545584 0 
L 0 -4.242641 
L -2.545584 -0 
z
" style="stroke: #808080; stroke-linejoin: miter"/>
     </defs>
     <g>
      <use xlink:href="#m8b55417d76" x="1053.3" y="79.856562" style="fill: #808080; stroke: #808080; stroke-linejoin: miter"/>
     </g>
    </g>
    <g id="text_39">
     <!-- Spearman $\rho$ -->
     <g transform="translate(1071.3 83.356562) scale(0.1 -0.1)">
      <use xlink:href="#DejaVuSans-53" transform="translate(0 0.78125)"/>
      <use xlink:href="#DejaVuSans-70" transform="translate(63.476562 0.78125)"/>
      <use xlink:href="#DejaVuSans-65" transform="translate(126.953125 0.78125)"/>
      <use xlink:href="#DejaVuSans-61" transform="translate(188.476562 0.78125)"/>
      <use xlink:href="#DejaVuSans-72" transform="translate(249.755859 0.78125)"/>
      <use xlink:href="#DejaVuSans-6d" transform="translate(290.869141 0.78125)"/>
      <use xlink:href="#DejaVuSans-61" transform="translate(388.28125 0.78125)"/>
      <use xlink:href="#DejaVuSans-6e" transform="translate(449.560547 0.78125)"/>
      <use xlink:href="#DejaVuSans-20" transform="translate(512.939453 0.78125)"/>
      <use xlink:href="#DejaVuSans-Oblique-3c1" transform="translate(544.726562 0.78125)"/>
     </g>
    </g>
   </g>
   <g id="LineCollection_2">
    <path d="M 642.698182 313.767502 
L 1117.461818 313.767502 
" clip-path="url(#p6a031a7f77)" style="fill: none; stroke-dasharray: 5.55,2.4; stroke-dashoffset: 0; stroke: #ff0000; stroke-width: 1.5"/>
   </g>
   <g id="line2d_49">
    <path d="M 642.698182 278.181462 
L 685.858512 329.65731 
L 729.018843 349.266969 
L 772.179174 352.858885 
L 815.339504 381.125482 
L 858.499835 351.687377 
L 901.660165 378.193475 
L 944.820496 327.796883 
L 987.980826 325.744164 
L 1031.141157 292.77744 
L 1074.301488 329.147811 
L 1117.461818 308.451175 
" clip-path="url(#p6a031a7f77)" style="fill: none; stroke: #808080; stroke-width: 1.5; stroke-linecap: square"/>
    <g clip-path="url(#p6a031a7f77)">
     <use xlink:href="#maf0d29b360" x="642.698182" y="278.181462" style="fill: #808080; stroke: #808080; stroke-linejoin: miter"/>
     <use xlink:href="#maf0d29b360" x="685.858512" y="329.65731" style="fill: #808080; stroke: #808080; stroke-linejoin: miter"/>
     <use xlink:href="#maf0d29b360" x="729.018843" y="349.266969" style="fill: #808080; stroke: #808080; stroke-linejoin: miter"/>
     <use xlink:href="#maf0d29b360" x="772.179174" y="352.858885" style="fill: #808080; stroke: #808080; stroke-linejoin: miter"/>
     <use xlink:href="#maf0d29b360" x="815.339504" y="381.125482" style="fill: #808080; stroke: #808080; stroke-linejoin: miter"/>
     <use xlink:href="#maf0d29b360" x="858.499835" y="351.687377" style="fill: #808080; stroke: #808080; stroke-linejoin: miter"/>
     <use xlink:href="#maf0d29b360" x="901.660165" y="378.193475" style="fill: #808080; stroke: #808080; stroke-linejoin: miter"/>
     <use xlink:href="#maf0d29b360" x="944.820496" y="327.796883" style="fill: #808080; stroke: #808080; stroke-linejoin: miter"/>
     <use xlink:href="#maf0d29b360" x="987.980826" y="325.744164" style="fill: #808080; stroke: #808080; stroke-linejoin: miter"/>
     <use xlink:href="#maf0d29b360" x="1031.141157" y="292.77744" style="fill: #808080; stroke: #808080; stroke-linejoin: miter"/>
     <use xlink:href="#maf0d29b360" x="1074.301488" y="329.147811" style="fill: #808080; stroke: #808080; stroke-linejoin: miter"/>
     <use xlink:href="#maf0d29b360" x="1117.461818" y="308.451175" style="fill: #808080; stroke: #808080; stroke-linejoin: miter"/>
    </g>
   </g>
   <g id="line2d_50">
    <path d="M 642.698182 260.656312 
L 685.858512 337.492777 
L 729.018843 367.374068 
L 772.179174 372.174121 
L 815.339504 413.065008 
L 858.499835 370.210593 
L 901.660165 408.638694 
L 944.820496 334.642215 
L 987.980826 331.251009 
L 1031.141157 281.90181 
L 1074.301488 336.306193 
L 1117.461818 305.688575 
" clip-path="url(#p6a031a7f77)" style="fill: none; stroke: #808080; stroke-width: 1.5; stroke-linecap: square"/>
    <g clip-path="url(#p6a031a7f77)">
     <use xlink:href="#m8b55417d76" x="642.698182" y="260.656312" style="fill: #808080; stroke: #808080; stroke-linejoin: miter"/>
     <use xlink:href="#m8b55417d76" x="685.858512" y="337.492777" style="fill: #808080; stroke: #808080; stroke-linejoin: miter"/>
     <use xlink:href="#m8b55417d76" x="729.018843" y="367.374068" style="fill: #808080; stroke: #808080; stroke-linejoin: miter"/>
     <use xlink:href="#m8b55417d76" x="772.179174" y="372.174121" style="fill: #808080; stroke: #808080; stroke-linejoin: miter"/>
     <use xlink:href="#m8b55417d76" x="815.339504" y="413.065008" style="fill: #808080; stroke: #808080; stroke-linejoin: miter"/>
     <use xlink:href="#m8b55417d76" x="858.499835" y="370.210593" style="fill: #808080; stroke: #808080; stroke-linejoin: miter"/>
     <use xlink:href="#m8b55417d76" x="901.660165" y="408.638694" style="fill: #808080; stroke: #808080; stroke-linejoin: miter"/>
     <use xlink:href="#m8b55417d76" x="944.820496" y="334.642215" style="fill: #808080; stroke: #808080; stroke-linejoin: miter"/>
     <use xlink:href="#m8b55417d76" x="987.980826" y="331.251009" style="fill: #808080; stroke: #808080; stroke-linejoin: miter"/>
     <use xlink:href="#m8b55417d76" x="1031.141157" y="281.90181" style="fill: #808080; stroke: #808080; stroke-linejoin: miter"/>
     <use xlink:href="#m8b55417d76" x="1074.301488" y="336.306193" style="fill: #808080; stroke: #808080; stroke-linejoin: miter"/>
     <use xlink:href="#m8b55417d76" x="1117.461818" y="305.688575" style="fill: #808080; stroke: #808080; stroke-linejoin: miter"/>
    </g>
   </g>
  </g>
  <g id="text_40">
   <!-- Correlation of Spatially Averaged P/T Data by Month -->
   <g transform="translate(419.66625 22.078125) scale(0.12 -0.12)">
    <defs>
     <path id="DejaVuSans-43" d="M 4122 4306 
L 4122 3641 
Q 3803 3938 3442 4084 
Q 3081 4231 2675 4231 
Q 1875 4231 1450 3742 
Q 1025 3253 1025 2328 
Q 1025 1406 1450 917 
Q 1875 428 2675 428 
Q 3081 428 3442 575 
Q 3803 722 4122 1019 
L 4122 359 
Q 3791 134 3420 21 
Q 3050 -91 2638 -91 
Q 1578 -91 968 557 
Q 359 1206 359 2328 
Q 359 3453 968 4101 
Q 1578 4750 2638 4750 
Q 3056 4750 3426 4639 
Q 3797 4528 4122 4306 
z
" transform="scale(0.015625)"/>
     <path id="DejaVuSans-69" d="M 603 3500 
L 1178 3500 
L 1178 0 
L 603 0 
L 603 3500 
z
M 603 4863 
L 1178 4863 
L 1178 4134 
L 603 4134 
L 603 4863 
z
" transform="scale(0.015625)"/>
     <path id="DejaVuSans-66" d="M 2375 4863 
L 2375 4384 
L 1825 4384 
Q 1516 4384 1395 4259 
Q 1275 4134 1275 3809 
L 1275 3500 
L 2222 3500 
L 2222 3053 
L 1275 3053 
L 1275 0 
L 697 0 
L 697 3053 
L 147 3053 
L 147 3500 
L 697 3500 
L 697 3744 
Q 697 4328 969 4595 
Q 1241 4863 1831 4863 
L 2375 4863 
z
" transform="scale(0.015625)"/>
     <path id="DejaVuSans-50" d="M 1259 4147 
L 1259 2394 
L 2053 2394 
Q 2494 2394 2734 2622 
Q 2975 2850 2975 3272 
Q 2975 3691 2734 3919 
Q 2494 4147 2053 4147 
L 1259 4147 
z
M 628 4666 
L 2053 4666 
Q 2838 4666 3239 4311 
Q 3641 3956 3641 3272 
Q 3641 2581 3239 2228 
Q 2838 1875 2053 1875 
L 1259 1875 
L 1259 0 
L 628 0 
L 628 4666 
z
" transform="scale(0.015625)"/>
     <path id="DejaVuSans-2f" d="M 1625 4666 
L 2156 4666 
L 531 -594 
L 0 -594 
L 1625 4666 
z
" transform="scale(0.015625)"/>
     <path id="DejaVuSans-54" d="M -19 4666 
L 3928 4666 
L 3928 4134 
L 2272 4134 
L 2272 0 
L 1638 0 
L 1638 4134 
L -19 4134 
L -19 4666 
z
" transform="scale(0.015625)"/>
    </defs>
    <use xlink:href="#DejaVuSans-43"/>
    <use xlink:href="#DejaVuSans-6f" transform="translate(69.824219 0)"/>
    <use xlink:href="#DejaVuSans-72" transform="translate(131.005859 0)"/>
    <use xlink:href="#DejaVuSans-72" transform="translate(170.369141 0)"/>
    <use xlink:href="#DejaVuSans-65" transform="translate(209.232422 0)"/>
    <use xlink:href="#DejaVuSans-6c" transform="translate(270.755859 0)"/>
    <use xlink:href="#DejaVuSans-61" transform="translate(298.539062 0)"/>
    <use xlink:href="#DejaVuSans-74" transform="translate(359.818359 0)"/>
    <use xlink:href="#DejaVuSans-69" transform="translate(399.027344 0)"/>
    <use xlink:href="#DejaVuSans-6f" transform="translate(426.810547 0)"/>
    <use xlink:href="#DejaVuSans-6e" transform="translate(487.992188 0)"/>
    <use xlink:href="#DejaVuSans-20" transform="translate(551.371094 0)"/>
    <use xlink:href="#DejaVuSans-6f" transform="translate(583.158203 0)"/>
    <use xlink:href="#DejaVuSans-66" transform="translate(644.339844 0)"/>
    <use xlink:href="#DejaVuSans-20" transform="translate(679.544922 0)"/>
    <use xlink:href="#DejaVuSans-53" transform="translate(711.332031 0)"/>
    <use xlink:href="#DejaVuSans-70" transform="translate(774.808594 0)"/>
    <use xlink:href="#DejaVuSans-61" transform="translate(838.285156 0)"/>
    <use xlink:href="#DejaVuSans-74" transform="translate(899.564453 0)"/>
    <use xlink:href="#DejaVuSans-69" transform="translate(938.773438 0)"/>
    <use xlink:href="#DejaVuSans-61" transform="translate(966.556641 0)"/>
    <use xlink:href="#DejaVuSans-6c" transform="translate(1027.835938 0)"/>
    <use xlink:href="#DejaVuSans-6c" transform="translate(1055.619141 0)"/>
    <use xlink:href="#DejaVuSans-79" transform="translate(1083.402344 0)"/>
    <use xlink:href="#DejaVuSans-20" transform="translate(1142.582031 0)"/>
    <use xlink:href="#DejaVuSans-41" transform="translate(1174.369141 0)"/>
    <use xlink:href="#DejaVuSans-76" transform="translate(1236.902344 0)"/>
    <use xlink:href="#DejaVuSans-65" transform="translate(1296.082031 0)"/>
    <use xlink:href="#DejaVuSans-72" transform="translate(1357.605469 0)"/>
    <use xlink:href="#DejaVuSans-61" transform="translate(1398.71875 0)"/>
    <use xlink:href="#DejaVuSans-67" transform="translate(1459.998047 0)"/>
    <use xlink:href="#DejaVuSans-65" transform="translate(1523.474609 0)"/>
    <use xlink:href="#DejaVuSans-64" transform="translate(1584.998047 0)"/>
    <use xlink:href="#DejaVuSans-20" transform="translate(1648.474609 0)"/>
    <use xlink:href="#DejaVuSans-50" transform="translate(1680.261719 0)"/>
    <use xlink:href="#DejaVuSans-2f" transform="translate(1740.564453 0)"/>
    <use xlink:href="#DejaVuSans-54" transform="translate(1774.255859 0)"/>
    <use xlink:href="#DejaVuSans-20" transform="translate(1835.339844 0)"/>
    <use xlink:href="#DejaVuSans-44" transform="translate(1867.126953 0)"/>
    <use xlink:href="#DejaVuSans-61" transform="translate(1944.128906 0)"/>
    <use xlink:href="#DejaVuSans-74" transform="translate(2005.408203 0)"/>
    <use xlink:href="#DejaVuSans-61" transform="translate(2044.617188 0)"/>
    <use xlink:href="#DejaVuSans-20" transform="translate(2105.896484 0)"/>
    <use xlink:href="#DejaVuSans-62" transform="translate(2137.683594 0)"/>
    <use xlink:href="#DejaVuSans-79" transform="translate(2201.160156 0)"/>
    <use xlink:href="#DejaVuSans-20" transform="translate(2260.339844 0)"/>
    <use xlink:href="#DejaVuSans-4d" transform="translate(2292.126953 0)"/>
    <use xlink:href="#DejaVuSans-6f" transform="translate(2378.40625 0)"/>
    <use xlink:href="#DejaVuSans-6e" transform="translate(2439.587891 0)"/>
    <use xlink:href="#DejaVuSans-74" transform="translate(2502.966797 0)"/>
    <use xlink:href="#DejaVuSans-68" transform="translate(2542.175781 0)"/>
   </g>
  </g>
  <g id="text_41">
   <!-- Month -->
   <g transform="translate(547.792031 637.776562) scale(0.18 -0.18)">
    <use xlink:href="#DejaVuSans-4d"/>
    <use xlink:href="#DejaVuSans-6f" transform="translate(86.279297 0)"/>
    <use xlink:href="#DejaVuSans-6e" transform="translate(147.460938 0)"/>
    <use xlink:href="#DejaVuSans-74" transform="translate(210.839844 0)"/>
    <use xlink:href="#DejaVuSans-68" transform="translate(250.048828 0)"/>
   </g>
  </g>
  <g id="text_42">
   <!-- Correlation Coefficient [-] -->
   <g transform="translate(36.717187 437.999062) rotate(-90) scale(0.18 -0.18)">
    <defs>
     <path id="DejaVuSans-5b" d="M 550 4863 
L 1875 4863 
L 1875 4416 
L 1125 4416 
L 1125 -397 
L 1875 -397 
L 1875 -844 
L 550 -844 
L 550 4863 
z
" transform="scale(0.015625)"/>
     <path id="DejaVuSans-2d" d="M 313 2009 
L 1997 2009 
L 1997 1497 
L 313 1497 
L 313 2009 
z
" transform="scale(0.015625)"/>
     <path id="DejaVuSans-5d" d="M 1947 4863 
L 1947 -844 
L 622 -844 
L 622 -397 
L 1369 -397 
L 1369 4416 
L 622 4416 
L 622 4863 
L 1947 4863 
z
" transform="scale(0.015625)"/>
    </defs>
    <use xlink:href="#DejaVuSans-43"/>
    <use xlink:href="#DejaVuSans-6f" transform="translate(69.824219 0)"/>
    <use xlink:href="#DejaVuSans-72" transform="translate(131.005859 0)"/>
    <use xlink:href="#DejaVuSans-72" transform="translate(170.369141 0)"/>
    <use xlink:href="#DejaVuSans-65" transform="translate(209.232422 0)"/>
    <use xlink:href="#DejaVuSans-6c" transform="translate(270.755859 0)"/>
    <use xlink:href="#DejaVuSans-61" transform="translate(298.539062 0)"/>
    <use xlink:href="#DejaVuSans-74" transform="translate(359.818359 0)"/>
    <use xlink:href="#DejaVuSans-69" transform="translate(399.027344 0)"/>
    <use xlink:href="#DejaVuSans-6f" transform="translate(426.810547 0)"/>
    <use xlink:href="#DejaVuSans-6e" transform="translate(487.992188 0)"/>
    <use xlink:href="#DejaVuSans-20" transform="translate(551.371094 0)"/>
    <use xlink:href="#DejaVuSans-43" transform="translate(583.158203 0)"/>
    <use xlink:href="#DejaVuSans-6f" transform="translate(652.982422 0)"/>
    <use xlink:href="#DejaVuSans-65" transform="translate(714.164062 0)"/>
    <use xlink:href="#DejaVuSans-66" transform="translate(775.6875 0)"/>
    <use xlink:href="#DejaVuSans-66" transform="translate(810.892578 0)"/>
    <use xlink:href="#DejaVuSans-69" transform="translate(846.097656 0)"/>
    <use xlink:href="#DejaVuSans-63" transform="translate(873.880859 0)"/>
    <use xlink:href="#DejaVuSans-69" transform="translate(928.861328 0)"/>
    <use xlink:href="#DejaVuSans-65" transform="translate(956.644531 0)"/>
    <use xlink:href="#DejaVuSans-6e" transform="translate(1018.167969 0)"/>
    <use xlink:href="#DejaVuSans-74" transform="translate(1081.546875 0)"/>
    <use xlink:href="#DejaVuSans-20" transform="translate(1120.755859 0)"/>
    <use xlink:href="#DejaVuSans-5b" transform="translate(1152.542969 0)"/>
    <use xlink:href="#DejaVuSans-2d" transform="translate(1191.556641 0)"/>
    <use xlink:href="#DejaVuSans-5d" transform="translate(1227.640625 0)"/>
   </g>
  </g>
 </g>
 <defs>
  <clipPath id="pd2e7332b92">
   <rect x="82.42" y="52.08" width="522.24" height="523.375003"/>
  </clipPath>
  <clipPath id="p6a031a7f77">
   <rect x="618.96" y="52.08" width="522.24" height="523.375003"/>
  </clipPath>
 </defs>
</svg>
