<?xml version="1.0" encoding="utf-8" standalone="no"?>
<!DOCTYPE svg PUBLIC "-//W3C//DTD SVG 1.1//EN"
  "http://www.w3.org/Graphics/SVG/1.1/DTD/svg11.dtd">
<svg xmlns:xlink="http://www.w3.org/1999/xlink" width="1152pt" height="648pt" viewBox="0 0 1152 648" xmlns="http://www.w3.org/2000/svg" version="1.1">
 <metadata>
  <rdf:RDF xmlns:dc="http://purl.org/dc/elements/1.1/" xmlns:cc="http://creativecommons.org/ns#" xmlns:rdf="http://www.w3.org/1999/02/22-rdf-syntax-ns#">
   <cc:Work>
    <dc:type rdf:resource="http://purl.org/dc/dcmitype/StillImage"/>
    <dc:date>2026-03-09T17:06:01.463854</dc:date>
    <dc:format>image/svg+xml</dc:format>
    <dc:creator>
     <cc:Agent>
      <dc:title>Matplotlib v3.10.5, https://matplotlib.org/</dc:title>
     </cc:Agent>
    </dc:creator>
   </cc:Work>
  </rdf:RDF>
 </metadata>
 <defs>
  <style type="text/css">*{stroke-linejoin: round; stroke-linecap: butt}</style>
 </defs>
 <g id="figure_1">
  <g id="patch_1">
   <path d="M 0 648 
L 1152 648 
L 1152 0 
L 0 0 
z
" style="fill: #ffffff"/>
  </g>
  <g id="axes_1">
   <g id="patch_2">
    <path d="M 74.513043 589.16 
L 600.706521 589.16 
L 600.706521 52.08 
L 74.513043 52.08 
z
" style="fill: #ffffff"/>
   </g>
   <g id="matplotlib.axis_1">
    <g id="xtick_1">
     <g id="line2d_1">
      <defs>
       <path id="m50b5303843" d="M 0 0 
L 0 3.5 
" style="stroke: #000000; stroke-width: 0.8"/>
      </defs>
      <g>
       <use xlink:href="#m50b5303843" x="98.428629" y="589.16" style="stroke: #000000; stroke-width: 0.8"/>
      </g>
     </g>
     <g id="text_1">
      <!-- 0 -->
      <g transform="translate(94.611129 605.278125) scale(0.12 -0.12)">
       <defs>
        <path id="DejaVuSans-30" d="M 2034 4250 
Q 1547 4250 1301 3770 
Q 1056 3291 1056 2328 
Q 1056 1369 1301 889 
Q 1547 409 2034 409 
Q 2525 409 2770 889 
Q 3016 1369 3016 2328 
Q 3016 3291 2770 3770 
Q 2525 4250 2034 4250 
z
M 2034 4750 
Q 2819 4750 3233 4129 
Q 3647 3509 3647 2328 
Q 3647 1150 3233 529 
Q 2819 -91 2034 -91 
Q 1250 -91 836 529 
Q 422 1150 422 2328 
Q 422 3509 836 4129 
Q 1250 4750 2034 4750 
z
" transform="scale(0.015625)"/>
       </defs>
       <use xlink:href="#DejaVuSans-30"/>
      </g>
     </g>
    </g>
    <g id="xtick_2">
     <g id="line2d_2">
      <g>
       <use xlink:href="#m50b5303843" x="194.100631" y="589.16" style="stroke: #000000; stroke-width: 0.8"/>
      </g>
     </g>
     <g id="text_2">
      <!-- 20 -->
      <g transform="translate(186.465631 605.278125) scale(0.12 -0.12)">
       <defs>
        <path id="DejaVuSans-32" d="M 1228 531 
L 3431 531 
L 3431 0 
L 469 0 
L 469 531 
Q 828 903 1448 1529 
Q 2069 2156 2228 2338 
Q 2531 2678 2651 2914 
Q 2772 3150 2772 3378 
Q 2772 3750 2511 3984 
Q 2250 4219 1831 4219 
Q 1534 4219 1204 4116 
Q 875 4013 500 3803 
L 500 4441 
Q 881 4594 1212 4672 
Q 1544 4750 1819 4750 
Q 2544 4750 2975 4387 
Q 3406 4025 3406 3419 
Q 3406 3131 3298 2873 
Q 3191 2616 2906 2266 
Q 2828 2175 2409 1742 
Q 1991 1309 1228 531 
z
" transform="scale(0.015625)"/>
       </defs>
       <use xlink:href="#DejaVuSans-32"/>
       <use xlink:href="#DejaVuSans-30" transform="translate(63.623047 0)"/>
      </g>
     </g>
    </g>
    <g id="xtick_3">
     <g id="line2d_3">
      <g>
       <use xlink:href="#m50b5303843" x="289.772632" y="589.16" style="stroke: #000000; stroke-width: 0.8"/>
      </g>
     </g>
     <g id="text_3">
      <!-- 40 -->
      <g transform="translate(282.137632 605.278125) scale(0.12 -0.12)">
       <defs>
        <path id="DejaVuSans-34" d="M 2419 4116 
L 825 1625 
L 2419 1625 
L 2419 4116 
z
M 2253 4666 
L 3047 4666 
L 3047 1625 
L 3713 1625 
L 3713 1100 
L 3047 1100 
L 3047 0 
L 2419 0 
L 2419 1100 
L 313 1100 
L 313 1709 
L 2253 4666 
z
" transform="scale(0.015625)"/>
       </defs>
       <use xlink:href="#DejaVuSans-34"/>
       <use xlink:href="#DejaVuSans-30" transform="translate(63.623047 0)"/>
      </g>
     </g>
    </g>
    <g id="xtick_4">
     <g id="line2d_4">
      <g>
       <use xlink:href="#m50b5303843" x="385.444633" y="589.16" style="stroke: #000000; stroke-width: 0.8"/>
      </g>
     </g>
     <g id="text_4">
      <!-- 60 -->
      <g transform="translate(377.809633 605.278125) scale(0.12 -0.12)">
       <defs>
        <path id="DejaVuSans-36" d="M 2113 2584 
Q 1688 2584 1439 2293 
Q 1191 2003 1191 1497 
Q 1191 994 1439 701 
Q 1688 409 2113 409 
Q 2538 409 2786 701 
Q 3034 994 3034 1497 
Q 3034 2003 2786 2293 
Q 2538 2584 2113 2584 
z
M 3366 4563 
L 3366 3988 
Q 3128 4100 2886 4159 
Q 2644 4219 2406 4219 
Q 1781 4219 1451 3797 
Q 1122 3375 1075 2522 
Q 1259 2794 1537 2939 
Q 1816 3084 2150 3084 
Q 2853 3084 3261 2657 
Q 3669 2231 3669 1497 
Q 3669 778 3244 343 
Q 2819 -91 2113 -91 
Q 1303 -91 875 529 
Q 447 1150 447 2328 
Q 447 3434 972 4092 
Q 1497 4750 2381 4750 
Q 2619 4750 2861 4703 
Q 3103 4656 3366 4563 
z
" transform="scale(0.015625)"/>
       </defs>
       <use xlink:href="#DejaVuSans-36"/>
       <use xlink:href="#DejaVuSans-30" transform="translate(63.623047 0)"/>
      </g>
     </g>
    </g>
    <g id="xtick_5">
     <g id="line2d_5">
      <g>
       <use xlink:href="#m50b5303843" x="481.116635" y="589.16" style="stroke: #000000; stroke-width: 0.8"/>
      </g>
     </g>
     <g id="text_5">
      <!-- 80 -->
      <g transform="translate(473.481635 605.278125) scale(0.12 -0.12)">
       <defs>
        <path id="DejaVuSans-38" d="M 2034 2216 
Q 1584 2216 1326 1975 
Q 1069 1734 1069 1313 
Q 1069 891 1326 650 
Q 1584 409 2034 409 
Q 2484 409 2743 651 
Q 3003 894 3003 1313 
Q 3003 1734 2745 1975 
Q 2488 2216 2034 2216 
z
M 1403 2484 
Q 997 2584 770 2862 
Q 544 3141 544 3541 
Q 544 4100 942 4425 
Q 1341 4750 2034 4750 
Q 2731 4750 3128 4425 
Q 3525 4100 3525 3541 
Q 3525 3141 3298 2862 
Q 3072 2584 2669 2484 
Q 3125 2378 3379 2068 
Q 3634 1759 3634 1313 
Q 3634 634 3220 271 
Q 2806 -91 2034 -91 
Q 1263 -91 848 271 
Q 434 634 434 1313 
Q 434 1759 690 2068 
Q 947 2378 1403 2484 
z
M 1172 3481 
Q 1172 3119 1398 2916 
Q 1625 2713 2034 2713 
Q 2441 2713 2670 2916 
Q 2900 3119 2900 3481 
Q 2900 3844 2670 4047 
Q 2441 4250 2034 4250 
Q 1625 4250 1398 4047 
Q 1172 3844 1172 3481 
z
" transform="scale(0.015625)"/>
       </defs>
       <use xlink:href="#DejaVuSans-38"/>
       <use xlink:href="#DejaVuSans-30" transform="translate(63.623047 0)"/>
      </g>
     </g>
    </g>
    <g id="xtick_6">
     <g id="line2d_6">
      <g>
       <use xlink:href="#m50b5303843" x="576.788636" y="589.16" style="stroke: #000000; stroke-width: 0.8"/>
      </g>
     </g>
     <g id="text_6">
      <!-- 100 -->
      <g transform="translate(565.336136 605.278125) scale(0.12 -0.12)">
       <defs>
        <path id="DejaVuSans-31" d="M 794 531 
L 1825 531 
L 1825 4091 
L 703 3866 
L 703 4441 
L 1819 4666 
L 2450 4666 
L 2450 531 
L 3481 531 
L 3481 0 
L 794 0 
L 794 531 
z
" transform="scale(0.015625)"/>
       </defs>
       <use xlink:href="#DejaVuSans-31"/>
       <use xlink:href="#DejaVuSans-30" transform="translate(63.623047 0)"/>
       <use xlink:href="#DejaVuSans-30" transform="translate(127.246094 0)"/>
      </g>
     </g>
    </g>
   </g>
   <g id="matplotlib.axis_2">
    <g id="ytick_1">
     <g id="line2d_7">
      <defs>
       <path id="m923bf1a32a" d="M 0 0 
L -3.5 0 
" style="stroke: #000000; stroke-width: 0.8"/>
      </defs>
      <g>
       <use xlink:href="#m923bf1a32a" x="74.513043" y="589.16" style="stroke: #000000; stroke-width: 0.8"/>
      </g>
     </g>
     <g id="text_7">
      <!-- $\mathdefault{10^{-5}}$ -->
      <g transform="translate(39.313043 593.719062) scale(0.12 -0.12)">
       <defs>
        <path id="DejaVuSans-2212" d="M 678 2272 
L 4684 2272 
L 4684 1741 
L 678 1741 
L 678 2272 
z
" transform="scale(0.015625)"/>
        <path id="DejaVuSans-35" d="M 691 4666 
L 3169 4666 
L 3169 4134 
L 1269 4134 
L 1269 2991 
Q 1406 3038 1543 3061 
Q 1681 3084 1819 3084 
Q 2600 3084 3056 2656 
Q 3513 2228 3513 1497 
Q 3513 744 3044 326 
Q 2575 -91 1722 -91 
Q 1428 -91 1123 -41 
Q 819 9 494 109 
L 494 744 
Q 775 591 1075 516 
Q 1375 441 1709 441 
Q 2250 441 2565 725 
Q 2881 1009 2881 1497 
Q 2881 1984 2565 2268 
Q 2250 2553 1709 2553 
Q 1456 2553 1204 2497 
Q 953 2441 691 2322 
L 691 4666 
z
" transform="scale(0.015625)"/>
       </defs>
       <use xlink:href="#DejaVuSans-31" transform="translate(0 0.684375)"/>
       <use xlink:href="#DejaVuSans-30" transform="translate(63.623047 0.684375)"/>
       <use xlink:href="#DejaVuSans-2212" transform="translate(128.203125 38.965625) scale(0.7)"/>
       <use xlink:href="#DejaVuSans-35" transform="translate(186.855469 38.965625) scale(0.7)"/>
      </g>
     </g>
    </g>
    <g id="ytick_2">
     <g id="line2d_8">
      <g>
       <use xlink:href="#m923bf1a32a" x="74.513043" y="454.89" style="stroke: #000000; stroke-width: 0.8"/>
      </g>
     </g>
     <g id="text_8">
      <!-- $\mathdefault{10^{-4}}$ -->
      <g transform="translate(39.313043 459.449062) scale(0.12 -0.12)">
       <use xlink:href="#DejaVuSans-31" transform="translate(0 0.684375)"/>
       <use xlink:href="#DejaVuSans-30" transform="translate(63.623047 0.684375)"/>
       <use xlink:href="#DejaVuSans-2212" transform="translate(128.203125 38.965625) scale(0.7)"/>
       <use xlink:href="#DejaVuSans-34" transform="translate(186.855469 38.965625) scale(0.7)"/>
      </g>
     </g>
    </g>
    <g id="ytick_3">
     <g id="line2d_9">
      <g>
       <use xlink:href="#m923bf1a32a" x="74.513043" y="320.62" style="stroke: #000000; stroke-width: 0.8"/>
      </g>
     </g>
     <g id="text_9">
      <!-- $\mathdefault{10^{-3}}$ -->
      <g transform="translate(39.313043 325.179062) scale(0.12 -0.12)">
       <defs>
        <path id="DejaVuSans-33" d="M 2597 2516 
Q 3050 2419 3304 2112 
Q 3559 1806 3559 1356 
Q 3559 666 3084 287 
Q 2609 -91 1734 -91 
Q 1441 -91 1130 -33 
Q 819 25 488 141 
L 488 750 
Q 750 597 1062 519 
Q 1375 441 1716 441 
Q 2309 441 2620 675 
Q 2931 909 2931 1356 
Q 2931 1769 2642 2001 
Q 2353 2234 1838 2234 
L 1294 2234 
L 1294 2753 
L 1863 2753 
Q 2328 2753 2575 2939 
Q 2822 3125 2822 3475 
Q 2822 3834 2567 4026 
Q 2313 4219 1838 4219 
Q 1578 4219 1281 4162 
Q 984 4106 628 3988 
L 628 4550 
Q 988 4650 1302 4700 
Q 1616 4750 1894 4750 
Q 2613 4750 3031 4423 
Q 3450 4097 3450 3541 
Q 3450 3153 3228 2886 
Q 3006 2619 2597 2516 
z
" transform="scale(0.015625)"/>
       </defs>
       <use xlink:href="#DejaVuSans-31" transform="translate(0 0.765625)"/>
       <use xlink:href="#DejaVuSans-30" transform="translate(63.623047 0.765625)"/>
       <use xlink:href="#DejaVuSans-2212" transform="translate(128.203125 39.046875) scale(0.7)"/>
       <use xlink:href="#DejaVuSans-33" transform="translate(186.855469 39.046875) scale(0.7)"/>
      </g>
     </g>
    </g>
    <g id="ytick_4">
     <g id="line2d_10">
      <g>
       <use xlink:href="#m923bf1a32a" x="74.513043" y="186.35" style="stroke: #000000; stroke-width: 0.8"/>
      </g>
     </g>
     <g id="text_10">
      <!-- $\mathdefault{10^{-2}}$ -->
      <g transform="translate(39.313043 190.909062) scale(0.12 -0.12)">
       <use xlink:href="#DejaVuSans-31" transform="translate(0 0.765625)"/>
       <use xlink:href="#DejaVuSans-30" transform="translate(63.623047 0.765625)"/>
       <use xlink:href="#DejaVuSans-2212" transform="translate(128.203125 39.046875) scale(0.7)"/>
       <use xlink:href="#DejaVuSans-32" transform="translate(186.855469 39.046875) scale(0.7)"/>
      </g>
     </g>
    </g>
    <g id="ytick_5">
     <g id="line2d_11">
      <g>
       <use xlink:href="#m923bf1a32a" x="74.513043" y="52.08" style="stroke: #000000; stroke-width: 0.8"/>
      </g>
     </g>
     <g id="text_11">
      <!-- $\mathdefault{10^{-1}}$ -->
      <g transform="translate(39.313043 56.639062) scale(0.12 -0.12)">
       <use xlink:href="#DejaVuSans-31" transform="translate(0 0.684375)"/>
       <use xlink:href="#DejaVuSans-30" transform="translate(63.623047 0.684375)"/>
       <use xlink:href="#DejaVuSans-2212" transform="translate(128.203125 38.965625) scale(0.7)"/>
       <use xlink:href="#DejaVuSans-31" transform="translate(186.855469 38.965625) scale(0.7)"/>
      </g>
     </g>
    </g>
    <g id="ytick_6">
     <g id="line2d_12">
      <defs>
       <path id="maa1293ff62" d="M 0 0 
L -2 0 
" style="stroke: #000000; stroke-width: 0.6"/>
      </defs>
      <g>
       <use xlink:href="#maa1293ff62" x="74.513043" y="548.740702" style="stroke: #000000; stroke-width: 0.6"/>
      </g>
     </g>
    </g>
    <g id="ytick_7">
     <g id="line2d_13">
      <g>
       <use xlink:href="#maa1293ff62" x="74.513043" y="525.096929" style="stroke: #000000; stroke-width: 0.6"/>
      </g>
     </g>
    </g>
    <g id="ytick_8">
     <g id="line2d_14">
      <g>
       <use xlink:href="#maa1293ff62" x="74.513043" y="508.321405" style="stroke: #000000; stroke-width: 0.6"/>
      </g>
     </g>
    </g>
    <g id="ytick_9">
     <g id="line2d_15">
      <g>
       <use xlink:href="#maa1293ff62" x="74.513043" y="495.309298" style="stroke: #000000; stroke-width: 0.6"/>
      </g>
     </g>
    </g>
    <g id="ytick_10">
     <g id="line2d_16">
      <g>
       <use xlink:href="#maa1293ff62" x="74.513043" y="484.677632" style="stroke: #000000; stroke-width: 0.6"/>
      </g>
     </g>
    </g>
    <g id="ytick_11">
     <g id="line2d_17">
      <g>
       <use xlink:href="#maa1293ff62" x="74.513043" y="475.688686" style="stroke: #000000; stroke-width: 0.6"/>
      </g>
     </g>
    </g>
    <g id="ytick_12">
     <g id="line2d_18">
      <g>
       <use xlink:href="#maa1293ff62" x="74.513043" y="467.902107" style="stroke: #000000; stroke-width: 0.6"/>
      </g>
     </g>
    </g>
    <g id="ytick_13">
     <g id="line2d_19">
      <g>
       <use xlink:href="#maa1293ff62" x="74.513043" y="461.033858" style="stroke: #000000; stroke-width: 0.6"/>
      </g>
     </g>
    </g>
    <g id="ytick_14">
     <g id="line2d_20">
      <g>
       <use xlink:href="#maa1293ff62" x="74.513043" y="414.470702" style="stroke: #000000; stroke-width: 0.6"/>
      </g>
     </g>
    </g>
    <g id="ytick_15">
     <g id="line2d_21">
      <g>
       <use xlink:href="#maa1293ff62" x="74.513043" y="390.826929" style="stroke: #000000; stroke-width: 0.6"/>
      </g>
     </g>
    </g>
    <g id="ytick_16">
     <g id="line2d_22">
      <g>
       <use xlink:href="#maa1293ff62" x="74.513043" y="374.051405" style="stroke: #000000; stroke-width: 0.6"/>
      </g>
     </g>
    </g>
    <g id="ytick_17">
     <g id="line2d_23">
      <g>
       <use xlink:href="#maa1293ff62" x="74.513043" y="361.039298" style="stroke: #000000; stroke-width: 0.6"/>
      </g>
     </g>
    </g>
    <g id="ytick_18">
     <g id="line2d_24">
      <g>
       <use xlink:href="#maa1293ff62" x="74.513043" y="350.407632" style="stroke: #000000; stroke-width: 0.6"/>
      </g>
     </g>
    </g>
    <g id="ytick_19">
     <g id="line2d_25">
      <g>
       <use xlink:href="#maa1293ff62" x="74.513043" y="341.418686" style="stroke: #000000; stroke-width: 0.6"/>
      </g>
     </g>
    </g>
    <g id="ytick_20">
     <g id="line2d_26">
      <g>
       <use xlink:href="#maa1293ff62" x="74.513043" y="333.632107" style="stroke: #000000; stroke-width: 0.6"/>
      </g>
     </g>
    </g>
    <g id="ytick_21">
     <g id="line2d_27">
      <g>
       <use xlink:href="#maa1293ff62" x="74.513043" y="326.763858" style="stroke: #000000; stroke-width: 0.6"/>
      </g>
     </g>
    </g>
    <g id="ytick_22">
     <g id="line2d_28">
      <g>
       <use xlink:href="#maa1293ff62" x="74.513043" y="280.200702" style="stroke: #000000; stroke-width: 0.6"/>
      </g>
     </g>
    </g>
    <g id="ytick_23">
     <g id="line2d_29">
      <g>
       <use xlink:href="#maa1293ff62" x="74.513043" y="256.556929" style="stroke: #000000; stroke-width: 0.6"/>
      </g>
     </g>
    </g>
    <g id="ytick_24">
     <g id="line2d_30">
      <g>
       <use xlink:href="#maa1293ff62" x="74.513043" y="239.781405" style="stroke: #000000; stroke-width: 0.6"/>
      </g>
     </g>
    </g>
    <g id="ytick_25">
     <g id="line2d_31">
      <g>
       <use xlink:href="#maa1293ff62" x="74.513043" y="226.769298" style="stroke: #000000; stroke-width: 0.6"/>
      </g>
     </g>
    </g>
    <g id="ytick_26">
     <g id="line2d_32">
      <g>
       <use xlink:href="#maa1293ff62" x="74.513043" y="216.137632" style="stroke: #000000; stroke-width: 0.6"/>
      </g>
     </g>
    </g>
    <g id="ytick_27">
     <g id="line2d_33">
      <g>
       <use xlink:href="#maa1293ff62" x="74.513043" y="207.148686" style="stroke: #000000; stroke-width: 0.6"/>
      </g>
     </g>
    </g>
    <g id="ytick_28">
     <g id="line2d_34">
      <g>
       <use xlink:href="#maa1293ff62" x="74.513043" y="199.362107" style="stroke: #000000; stroke-width: 0.6"/>
      </g>
     </g>
    </g>
    <g id="ytick_29">
     <g id="line2d_35">
      <g>
       <use xlink:href="#maa1293ff62" x="74.513043" y="192.493858" style="stroke: #000000; stroke-width: 0.6"/>
      </g>
     </g>
    </g>
    <g id="ytick_30">
     <g id="line2d_36">
      <g>
       <use xlink:href="#maa1293ff62" x="74.513043" y="145.930702" style="stroke: #000000; stroke-width: 0.6"/>
      </g>
     </g>
    </g>
    <g id="ytick_31">
     <g id="line2d_37">
      <g>
       <use xlink:href="#maa1293ff62" x="74.513043" y="122.286929" style="stroke: #000000; stroke-width: 0.6"/>
      </g>
     </g>
    </g>
    <g id="ytick_32">
     <g id="line2d_38">
      <g>
       <use xlink:href="#maa1293ff62" x="74.513043" y="105.511405" style="stroke: #000000; stroke-width: 0.6"/>
      </g>
     </g>
    </g>
    <g id="ytick_33">
     <g id="line2d_39">
      <g>
       <use xlink:href="#maa1293ff62" x="74.513043" y="92.499298" style="stroke: #000000; stroke-width: 0.6"/>
      </g>
     </g>
    </g>
    <g id="ytick_34">
     <g id="line2d_40">
      <g>
       <use xlink:href="#maa1293ff62" x="74.513043" y="81.867632" style="stroke: #000000; stroke-width: 0.6"/>
      </g>
     </g>
    </g>
    <g id="ytick_35">
     <g id="line2d_41">
      <g>
       <use xlink:href="#maa1293ff62" x="74.513043" y="72.878686" style="stroke: #000000; stroke-width: 0.6"/>
      </g>
     </g>
    </g>
    <g id="ytick_36">
     <g id="line2d_42">
      <g>
       <use xlink:href="#maa1293ff62" x="74.513043" y="65.092107" style="stroke: #000000; stroke-width: 0.6"/>
      </g>
     </g>
    </g>
    <g id="ytick_37">
     <g id="line2d_43">
      <g>
       <use xlink:href="#maa1293ff62" x="74.513043" y="58.223858" style="stroke: #000000; stroke-width: 0.6"/>
      </g>
     </g>
    </g>
   </g>
   <g id="line2d_44">
    <path d="M 98.454326 -1 
L 98.592339 31.019495 
L 98.685888 40.532282 
L 98.802823 57.005626 
L 98.896372 59.468085 
L 99.060082 63.794614 
L 99.387501 72.546419 
L 99.948792 82.159927 
L 99.948792 82.159927 
L 100.580244 88.772338 
L 100.580244 88.772338 
L 100.743954 89.543244 
L 100.743954 89.543244 
L 100.884276 90.662525 
L 100.884276 90.662525 
L 101.211696 92.733016 
L 101.211696 92.733016 
L 101.445567 94.275457 
L 101.445567 94.275457 
L 101.702825 95.123216 
L 101.702825 95.123216 
L 102.357664 98.643156 
L 102.357664 98.643156 
L 102.63831 101.023597 
L 102.63831 101.023597 
L 103.36331 103.929459 
L 103.36331 103.929459 
L 103.550407 104.931174 
L 103.550407 104.931174 
L 103.714117 106.392722 
L 103.714117 106.392722 
L 104.041537 108.349204 
L 104.041537 108.349204 
L 104.368956 109.119528 
L 104.368956 109.119528 
L 104.672989 110.373613 
L 104.672989 110.373613 
L 104.836698 110.691395 
L 104.836698 110.691395 
L 104.860086 111.171337 
L 105.023795 111.493508 
L 105.023795 111.493508 
L 106.006054 115.332355 
L 106.006054 115.332355 
L 106.590732 117.083619 
L 106.590732 117.083619 
L 106.777829 117.979377 
L 106.777829 117.979377 
L 107.058474 118.889111 
L 107.058474 118.889111 
L 107.666539 120.94193 
L 107.666539 120.94193 
L 107.90041 121.323061 
L 107.90041 121.323061 
L 109.911702 126.518724 
L 109.911702 126.518724 
L 110.098799 126.938241 
L 110.098799 126.938241 
L 110.145573 127.573232 
L 110.145573 127.573232 
L 110.472993 128.000433 
L 110.472993 128.000433 
L 110.636702 128.647161 
L 110.636702 128.647161 
L 111.829445 130.856241 
L 111.829445 130.856241 
L 112.156865 131.992977 
L 112.156865 131.992977 
L 112.624607 133.152314 
L 112.624607 133.152314 
L 113.256059 134.335168 
L 113.256059 134.335168 
L 113.349607 135.056572 
L 113.349607 135.056572 
L 115.571383 140.108449 
L 115.571383 140.108449 
L 115.75848 140.905447 
L 115.75848 140.905447 
L 116.015738 141.442895 
L 116.015738 141.442895 
L 116.202835 142.258471 
L 116.202835 142.258471 
L 117.208481 144.207048 
L 117.208481 144.207048 
L 117.372191 145.062507 
L 117.372191 145.062507 
L 117.839933 145.639865 
L 117.839933 145.639865 
L 118.19074 146.516765 
L 118.19074 146.516765 
L 118.635095 147.108777 
L 118.635095 147.108777 
L 119.07945 148.00822 
L 119.07945 148.00822 
L 119.289934 148.921754 
L 119.289934 148.921754 
L 119.734289 149.538826 
L 119.734289 149.538826 
L 120.108483 150.476852 
L 120.108483 150.476852 
L 120.506064 151.110692 
L 120.506064 151.110692 
L 121.254452 152.726106 
L 121.254452 152.726106 
L 122.049613 154.38755 
L 122.049613 154.38755 
L 122.961711 156.097723 
L 122.961711 156.097723 
L 123.359292 157.148431 
L 123.359292 157.148431 
L 123.850421 157.85957 
L 123.850421 157.85957 
L 124.645583 160.046554 
L 124.645583 160.046554 
L 125.089938 160.794163 
L 125.089938 160.794163 
L 126.118971 163.884301 
L 126.118971 163.884301 
L 126.563326 164.683118 
L 126.563326 164.683118 
L 127.077843 166.729389 
L 127.077843 166.729389 
L 128.013327 168.850085 
L 128.013327 168.850085 
L 129.439941 171.050826 
L 129.439941 171.050826 
L 129.931071 172.412274 
L 129.931071 172.412274 
L 130.913329 173.80627 
L 130.913329 173.80627 
L 131.872201 176.206309 
L 131.872201 176.206309 
L 132.456879 177.194684 
L 132.456879 177.194684 
L 133.111718 178.709386 
L 133.111718 178.709386 
L 133.883493 179.741496 
L 133.883493 179.741496 
L 134.421396 181.324744 
L 134.421396 181.324744 
L 135.473816 182.40464 
L 135.473816 182.40464 
L 136.081881 184.062934 
L 136.081881 184.062934 
L 136.947204 185.195255 
L 136.947204 185.195255 
L 138.210108 188.126159 
L 138.210108 188.126159 
L 139.192367 189.958123 
L 139.192367 189.958123 
L 139.917368 191.849512 
L 139.917368 191.849512 
L 140.735917 193.145404 
L 140.735917 193.145404 
L 142.466563 196.51702 
L 142.466563 196.51702 
L 144.618177 202.353159 
L 144.618177 202.353159 
L 145.553662 203.908257 
L 145.553662 203.908257 
L 146.068178 206.321542 
L 146.068178 206.321542 
L 147.564954 207.987733 
L 147.564954 207.987733 
L 149.810116 212.374215 
L 149.810116 212.374215 
L 151.423827 215.173763 
L 151.423827 215.173763 
L 152.476247 218.114523 
L 152.476247 218.114523 
L 154.230281 220.160794 
L 154.230281 220.160794 
L 155.750443 223.371479 
L 155.750443 223.371479 
L 159.001252 231.631506 
L 159.001252 231.631506 
L 160.872221 235.56419 
L 160.872221 235.56419 
L 162.392383 238.341512 
L 162.392383 238.341512 
L 163.772223 242.772456 
L 163.772223 242.772456 
L 165.923837 245.925263 
L 165.923837 245.925263 
L 167.350451 250.999133 
L 167.350451 250.999133 
L 170.27384 256.556929 
L 170.27384 256.556929 
L 172.238358 260.580091 
L 172.238358 260.580091 
L 173.852068 267.188595 
L 173.852068 267.188595 
L 176.401264 272.050803 
L 176.401264 272.050803 
L 178.365781 280.200702 
L 178.365781 280.200702 
L 181.242396 286.344561 
L 181.242396 286.344561 
L 184.002075 296.976227 
L 184.002075 296.976227 
L 187.229497 305.320826 
L 187.229497 305.320826 
L 191.181919 320.62 
L 191.181919 320.62 
L 195.461761 333.632107 
L 195.461761 333.632107 
L 203.062572 361.039298 
L 203.062572 361.039298 
L 210.897255 390.826929 
L 210.897255 390.826929 
L 211.603275 649 
L 211.603275 649 
" clip-path="url(#pd55906d32c)" style="fill: none; stroke: #000000; stroke-width: 1.5; stroke-linecap: square"/>
   </g>
   <g id="line2d_45">
    <path d="M 98.433895 -1 
L 98.545873 32.835466 
L 98.564264 35.100738 
L 98.782659 53.676089 
L 99.021743 62.734996 
L 99.021743 62.734996 
L 99.180367 67.094139 
L 100.263144 83.045706 
L 100.263144 83.045706 
L 100.630966 86.835575 
L 100.630966 86.835575 
L 100.778095 87.903603 
L 100.778095 87.903603 
L 101.840183 95.367714 
L 101.840183 95.367714 
L 102.704566 99.689152 
L 102.704566 99.689152 
L 103.348255 102.805323 
L 103.348255 102.805323 
L 103.62872 103.787751 
L 103.62872 103.787751 
L 105.228747 110.373613 
L 105.228747 110.373613 
L 105.904621 112.80029 
L 105.904621 112.80029 
L 106.182787 113.799961 
L 106.182787 113.799961 
L 107.141424 116.906107 
L 107.141424 116.906107 
L 107.454073 117.979377 
L 107.454073 117.979377 
L 107.941438 119.441842 
L 107.941438 119.441842 
L 108.619611 121.514564 
L 108.619611 121.514564 
L 109.569052 124.063088 
L 109.569052 124.063088 
L 109.943771 125.073733 
L 109.943771 125.073733 
L 110.385158 126.310091 
L 110.385158 126.310091 
L 110.805855 127.360799 
L 110.805855 127.360799 
L 111.617364 129.962542 
L 111.617364 129.962542 
L 111.964496 130.856241 
L 111.964496 130.856241 
L 112.502436 132.453949 
L 112.502436 132.453949 
L 113.267967 134.574646 
L 113.267967 134.574646 
L 113.787516 135.787012 
L 113.787516 135.787012 
L 114.718567 138.290088 
L 114.718567 138.290088 
L 115.700193 140.372907 
L 115.700193 140.372907 
L 118.114028 145.930702 
L 118.114028 145.930702 
L 118.488747 146.81202 
L 118.488747 146.81202 
L 119.868081 149.849827 
L 119.868081 149.849827 
L 120.750855 151.751498 
L 120.750855 151.751498 
L 121.847426 154.38755 
L 121.847426 154.38755 
L 122.619853 156.097723 
L 122.619853 156.097723 
L 123.169288 157.502917 
L 123.169288 157.502917 
L 125.829104 163.488959 
L 125.829104 163.488959 
L 129.944118 172.412274 
L 129.944118 172.412274 
L 131.744149 176.206309 
L 131.744149 176.206309 
L 132.185536 177.194684 
L 132.185536 177.194684 
L 132.898192 178.709386 
L 132.898192 178.709386 
L 142.337436 197.215385 
L 142.337436 197.215385 
L 142.994918 198.637717 
L 142.994918 198.637717 
L 144.443219 201.59089 
L 144.443219 201.59089 
L 145.62255 203.908257 
L 145.62255 203.908257 
L 147.530629 207.987733 
L 147.530629 207.987733 
L 150.638729 214.225568 
L 150.638729 214.225568 
L 154.390518 222.28149 
L 154.390518 222.28149 
L 155.528469 224.482231 
L 155.528469 224.482231 
L 156.202044 225.614552 
L 156.202044 225.614552 
L 157.252636 227.947372 
L 157.252636 227.947372 
L 158.930826 231.631506 
L 158.930826 231.631506 
L 163.222855 241.257755 
L 163.222855 241.257755 
L 163.820566 242.772456 
L 163.820566 242.772456 
L 165.229786 245.925263 
L 165.229786 245.925263 
L 167.406835 250.999133 
L 167.406835 250.999133 
L 173.531079 267.188595 
L 173.531079 267.188595 
L 180.255334 286.344561 
L 180.255334 286.344561 
L 181.167993 289.677623 
L 181.167993 289.677623 
L 182.255368 293.21281 
L 182.255368 293.21281 
L 183.531252 296.976227 
L 183.531252 296.976227 
L 187.427872 309.988334 
L 187.427872 309.988334 
L 192.480833 326.763858 
L 192.480833 326.763858 
L 194.12224 333.632107 
L 194.12224 333.632107 
L 195.600427 341.418686 
L 195.600427 341.418686 
L 198.12231 350.407632 
L 198.12231 350.407632 
L 201.251099 361.039298 
L 201.251099 361.039298 
L 204.568398 374.051405 
L 204.568398 374.051405 
L 209.244341 390.826929 
L 209.244341 390.826929 
L 210.393786 414.470702 
L 210.393786 414.470702 
L 211.019717 649 
L 211.019717 649 
" clip-path="url(#pd55906d32c)" style="fill: none; stroke-dasharray: 9.6,2.4,1.5,2.4; stroke-dashoffset: 0; stroke: #808080; stroke-width: 1.5"/>
   </g>
   <g id="patch_3">
    <path d="M 74.513043 589.16 
L 74.513043 52.08 
" style="fill: none; stroke: #000000; stroke-width: 0.8; stroke-linejoin: miter; stroke-linecap: square"/>
   </g>
   <g id="patch_4">
    <path d="M 600.706521 589.16 
L 600.706521 52.08 
" style="fill: none; stroke: #000000; stroke-width: 0.8; stroke-linejoin: miter; stroke-linecap: square"/>
   </g>
   <g id="patch_5">
    <path d="M 74.513043 589.16 
L 600.706521 589.16 
" style="fill: none; stroke: #000000; stroke-width: 0.8; stroke-linejoin: miter; stroke-linecap: square"/>
   </g>
   <g id="patch_6">
    <path d="M 74.513043 52.08 
L 600.706521 52.08 
" style="fill: none; stroke: #000000; stroke-width: 0.8; stroke-linejoin: miter; stroke-linecap: square"/>
   </g>
   <g id="text_12">
    <!-- X -->
    <g transform="translate(332.129782 46.08) scale(0.16 -0.16)">
     <defs>
      <path id="DejaVuSans-58" d="M 403 4666 
L 1081 4666 
L 2241 2931 
L 3406 4666 
L 4084 4666 
L 2584 2425 
L 4184 0 
L 3506 0 
L 2194 1984 
L 872 0 
L 191 0 
L 1856 2491 
L 403 4666 
z
" transform="scale(0.015625)"/>
     </defs>
     <use xlink:href="#DejaVuSans-58"/>
    </g>
   </g>
   <g id="legend_1">
    <g id="patch_7">
     <path d="M 532.844021 89.43625 
L 593.706521 89.43625 
Q 595.706521 89.43625 595.706521 87.43625 
L 595.706521 59.08 
Q 595.706521 57.08 593.706521 57.08 
L 532.844021 57.08 
Q 530.844021 57.08 530.844021 59.08 
L 530.844021 87.43625 
Q 530.844021 89.43625 532.844021 89.43625 
z
" style="fill: #ffffff; opacity: 0.8; stroke: #cccccc; stroke-linejoin: miter"/>
    </g>
    <g id="line2d_46">
     <path d="M 534.844021 65.178437 
L 544.844021 65.178437 
L 554.844021 65.178437 
" style="fill: none; stroke: #000000; stroke-width: 1.5; stroke-linecap: square"/>
    </g>
    <g id="text_13">
     <!-- Obs -->
     <g transform="translate(562.844021 68.678437) scale(0.1 -0.1)">
      <defs>
       <path id="DejaVuSans-4f" d="M 2522 4238 
Q 1834 4238 1429 3725 
Q 1025 3213 1025 2328 
Q 1025 1447 1429 934 
Q 1834 422 2522 422 
Q 3209 422 3611 934 
Q 4013 1447 4013 2328 
Q 4013 3213 3611 3725 
Q 3209 4238 2522 4238 
z
M 2522 4750 
Q 3503 4750 4090 4092 
Q 4678 3434 4678 2328 
Q 4678 1225 4090 567 
Q 3503 -91 2522 -91 
Q 1538 -91 948 565 
Q 359 1222 359 2328 
Q 359 3434 948 4092 
Q 1538 4750 2522 4750 
z
" transform="scale(0.015625)"/>
       <path id="DejaVuSans-62" d="M 3116 1747 
Q 3116 2381 2855 2742 
Q 2594 3103 2138 3103 
Q 1681 3103 1420 2742 
Q 1159 2381 1159 1747 
Q 1159 1113 1420 752 
Q 1681 391 2138 391 
Q 2594 391 2855 752 
Q 3116 1113 3116 1747 
z
M 1159 2969 
Q 1341 3281 1617 3432 
Q 1894 3584 2278 3584 
Q 2916 3584 3314 3078 
Q 3713 2572 3713 1747 
Q 3713 922 3314 415 
Q 2916 -91 2278 -91 
Q 1894 -91 1617 61 
Q 1341 213 1159 525 
L 1159 0 
L 581 0 
L 581 4863 
L 1159 4863 
L 1159 2969 
z
" transform="scale(0.015625)"/>
       <path id="DejaVuSans-73" d="M 2834 3397 
L 2834 2853 
Q 2591 2978 2328 3040 
Q 2066 3103 1784 3103 
Q 1356 3103 1142 2972 
Q 928 2841 928 2578 
Q 928 2378 1081 2264 
Q 1234 2150 1697 2047 
L 1894 2003 
Q 2506 1872 2764 1633 
Q 3022 1394 3022 966 
Q 3022 478 2636 193 
Q 2250 -91 1575 -91 
Q 1294 -91 989 -36 
Q 684 19 347 128 
L 347 722 
Q 666 556 975 473 
Q 1284 391 1588 391 
Q 1994 391 2212 530 
Q 2431 669 2431 922 
Q 2431 1156 2273 1281 
Q 2116 1406 1581 1522 
L 1381 1569 
Q 847 1681 609 1914 
Q 372 2147 372 2553 
Q 372 3047 722 3315 
Q 1072 3584 1716 3584 
Q 2034 3584 2315 3537 
Q 2597 3491 2834 3397 
z
" transform="scale(0.015625)"/>
      </defs>
      <use xlink:href="#DejaVuSans-4f"/>
      <use xlink:href="#DejaVuSans-62" transform="translate(78.710938 0)"/>
      <use xlink:href="#DejaVuSans-73" transform="translate(142.1875 0)"/>
     </g>
    </g>
    <g id="line2d_47">
     <path d="M 534.844021 79.856562 
L 544.844021 79.856562 
L 554.844021 79.856562 
" style="fill: none; stroke-dasharray: 9.6,2.4,1.5,2.4; stroke-dashoffset: 0; stroke: #808080; stroke-width: 1.5"/>
    </g>
    <g id="text_14">
     <!-- Synth -->
     <g transform="translate(562.844021 83.356562) scale(0.1 -0.1)">
      <defs>
       <path id="DejaVuSans-53" d="M 3425 4513 
L 3425 3897 
Q 3066 4069 2747 4153 
Q 2428 4238 2131 4238 
Q 1616 4238 1336 4038 
Q 1056 3838 1056 3469 
Q 1056 3159 1242 3001 
Q 1428 2844 1947 2747 
L 2328 2669 
Q 3034 2534 3370 2195 
Q 3706 1856 3706 1288 
Q 3706 609 3251 259 
Q 2797 -91 1919 -91 
Q 1588 -91 1214 -16 
Q 841 59 441 206 
L 441 856 
Q 825 641 1194 531 
Q 1563 422 1919 422 
Q 2459 422 2753 634 
Q 3047 847 3047 1241 
Q 3047 1584 2836 1778 
Q 2625 1972 2144 2069 
L 1759 2144 
Q 1053 2284 737 2584 
Q 422 2884 422 3419 
Q 422 4038 858 4394 
Q 1294 4750 2059 4750 
Q 2388 4750 2728 4690 
Q 3069 4631 3425 4513 
z
" transform="scale(0.015625)"/>
       <path id="DejaVuSans-79" d="M 2059 -325 
Q 1816 -950 1584 -1140 
Q 1353 -1331 966 -1331 
L 506 -1331 
L 506 -850 
L 844 -850 
Q 1081 -850 1212 -737 
Q 1344 -625 1503 -206 
L 1606 56 
L 191 3500 
L 800 3500 
L 1894 763 
L 2988 3500 
L 3597 3500 
L 2059 -325 
z
" transform="scale(0.015625)"/>
       <path id="DejaVuSans-6e" d="M 3513 2113 
L 3513 0 
L 2938 0 
L 2938 2094 
Q 2938 2591 2744 2837 
Q 2550 3084 2163 3084 
Q 1697 3084 1428 2787 
Q 1159 2491 1159 1978 
L 1159 0 
L 581 0 
L 581 3500 
L 1159 3500 
L 1159 2956 
Q 1366 3272 1645 3428 
Q 1925 3584 2291 3584 
Q 2894 3584 3203 3211 
Q 3513 2838 3513 2113 
z
" transform="scale(0.015625)"/>
       <path id="DejaVuSans-74" d="M 1172 4494 
L 1172 3500 
L 2356 3500 
L 2356 3053 
L 1172 3053 
L 1172 1153 
Q 1172 725 1289 603 
Q 1406 481 1766 481 
L 2356 481 
L 2356 0 
L 1766 0 
Q 1100 0 847 248 
Q 594 497 594 1153 
L 594 3053 
L 172 3053 
L 172 3500 
L 594 3500 
L 594 4494 
L 1172 4494 
z
" transform="scale(0.015625)"/>
       <path id="DejaVuSans-68" d="M 3513 2113 
L 3513 0 
L 2938 0 
L 2938 2094 
Q 2938 2591 2744 2837 
Q 2550 3084 2163 3084 
Q 1697 3084 1428 2787 
Q 1159 2491 1159 1978 
L 1159 0 
L 581 0 
L 581 4863 
L 1159 4863 
L 1159 2956 
Q 1366 3272 1645 3428 
Q 1925 3584 2291 3584 
Q 2894 3584 3203 3211 
Q 3513 2838 3513 2113 
z
" transform="scale(0.015625)"/>
      </defs>
      <use xlink:href="#DejaVuSans-53"/>
      <use xlink:href="#DejaVuSans-79" transform="translate(63.476562 0)"/>
      <use xlink:href="#DejaVuSans-6e" transform="translate(122.65625 0)"/>
      <use xlink:href="#DejaVuSans-74" transform="translate(186.035156 0)"/>
      <use xlink:href="#DejaVuSans-68" transform="translate(225.244141 0)"/>
     </g>
    </g>
   </g>
  </g>
  <g id="axes_2">
   <g id="patch_8">
    <path d="M 615.006521 589.16 
L 1141.2 589.16 
L 1141.2 52.08 
L 615.006521 52.08 
z
" style="fill: #ffffff"/>
   </g>
   <g id="matplotlib.axis_3">
    <g id="xtick_7">
     <g id="line2d_48">
      <g>
       <use xlink:href="#m50b5303843" x="638.922108" y="589.16" style="stroke: #000000; stroke-width: 0.8"/>
      </g>
     </g>
     <g id="text_15">
      <!-- 0 -->
      <g transform="translate(635.104608 605.278125) scale(0.12 -0.12)">
       <use xlink:href="#DejaVuSans-30"/>
      </g>
     </g>
    </g>
    <g id="xtick_8">
     <g id="line2d_49">
      <g>
       <use xlink:href="#m50b5303843" x="734.594109" y="589.16" style="stroke: #000000; stroke-width: 0.8"/>
      </g>
     </g>
     <g id="text_16">
      <!-- 20 -->
      <g transform="translate(726.959109 605.278125) scale(0.12 -0.12)">
       <use xlink:href="#DejaVuSans-32"/>
       <use xlink:href="#DejaVuSans-30" transform="translate(63.623047 0)"/>
      </g>
     </g>
    </g>
    <g id="xtick_9">
     <g id="line2d_50">
      <g>
       <use xlink:href="#m50b5303843" x="830.266111" y="589.16" style="stroke: #000000; stroke-width: 0.8"/>
      </g>
     </g>
     <g id="text_17">
      <!-- 40 -->
      <g transform="translate(822.631111 605.278125) scale(0.12 -0.12)">
       <use xlink:href="#DejaVuSans-34"/>
       <use xlink:href="#DejaVuSans-30" transform="translate(63.623047 0)"/>
      </g>
     </g>
    </g>
    <g id="xtick_10">
     <g id="line2d_51">
      <g>
       <use xlink:href="#m50b5303843" x="925.938112" y="589.16" style="stroke: #000000; stroke-width: 0.8"/>
      </g>
     </g>
     <g id="text_18">
      <!-- 60 -->
      <g transform="translate(918.303112 605.278125) scale(0.12 -0.12)">
       <use xlink:href="#DejaVuSans-36"/>
       <use xlink:href="#DejaVuSans-30" transform="translate(63.623047 0)"/>
      </g>
     </g>
    </g>
    <g id="xtick_11">
     <g id="line2d_52">
      <g>
       <use xlink:href="#m50b5303843" x="1021.610113" y="589.16" style="stroke: #000000; stroke-width: 0.8"/>
      </g>
     </g>
     <g id="text_19">
      <!-- 80 -->
      <g transform="translate(1013.975113 605.278125) scale(0.12 -0.12)">
       <use xlink:href="#DejaVuSans-38"/>
       <use xlink:href="#DejaVuSans-30" transform="translate(63.623047 0)"/>
      </g>
     </g>
    </g>
    <g id="xtick_12">
     <g id="line2d_53">
      <g>
       <use xlink:href="#m50b5303843" x="1117.282115" y="589.16" style="stroke: #000000; stroke-width: 0.8"/>
      </g>
     </g>
     <g id="text_20">
      <!-- 100 -->
      <g transform="translate(1105.829615 605.278125) scale(0.12 -0.12)">
       <use xlink:href="#DejaVuSans-31"/>
       <use xlink:href="#DejaVuSans-30" transform="translate(63.623047 0)"/>
       <use xlink:href="#DejaVuSans-30" transform="translate(127.246094 0)"/>
      </g>
     </g>
    </g>
   </g>
   <g id="matplotlib.axis_4">
    <g id="ytick_38">
     <g id="line2d_54">
      <g>
       <use xlink:href="#m923bf1a32a" x="615.006521" y="589.16" style="stroke: #000000; stroke-width: 0.8"/>
      </g>
     </g>
    </g>
    <g id="ytick_39">
     <g id="line2d_55">
      <g>
       <use xlink:href="#m923bf1a32a" x="615.006521" y="454.89" style="stroke: #000000; stroke-width: 0.8"/>
      </g>
     </g>
    </g>
    <g id="ytick_40">
     <g id="line2d_56">
      <g>
       <use xlink:href="#m923bf1a32a" x="615.006521" y="320.62" style="stroke: #000000; stroke-width: 0.8"/>
      </g>
     </g>
    </g>
    <g id="ytick_41">
     <g id="line2d_57">
      <g>
       <use xlink:href="#m923bf1a32a" x="615.006521" y="186.35" style="stroke: #000000; stroke-width: 0.8"/>
      </g>
     </g>
    </g>
    <g id="ytick_42">
     <g id="line2d_58">
      <g>
       <use xlink:href="#m923bf1a32a" x="615.006521" y="52.08" style="stroke: #000000; stroke-width: 0.8"/>
      </g>
     </g>
    </g>
    <g id="ytick_43">
     <g id="line2d_59">
      <g>
       <use xlink:href="#maa1293ff62" x="615.006521" y="548.740702" style="stroke: #000000; stroke-width: 0.6"/>
      </g>
     </g>
    </g>
    <g id="ytick_44">
     <g id="line2d_60">
      <g>
       <use xlink:href="#maa1293ff62" x="615.006521" y="525.096929" style="stroke: #000000; stroke-width: 0.6"/>
      </g>
     </g>
    </g>
    <g id="ytick_45">
     <g id="line2d_61">
      <g>
       <use xlink:href="#maa1293ff62" x="615.006521" y="508.321405" style="stroke: #000000; stroke-width: 0.6"/>
      </g>
     </g>
    </g>
    <g id="ytick_46">
     <g id="line2d_62">
      <g>
       <use xlink:href="#maa1293ff62" x="615.006521" y="495.309298" style="stroke: #000000; stroke-width: 0.6"/>
      </g>
     </g>
    </g>
    <g id="ytick_47">
     <g id="line2d_63">
      <g>
       <use xlink:href="#maa1293ff62" x="615.006521" y="484.677632" style="stroke: #000000; stroke-width: 0.6"/>
      </g>
     </g>
    </g>
    <g id="ytick_48">
     <g id="line2d_64">
      <g>
       <use xlink:href="#maa1293ff62" x="615.006521" y="475.688686" style="stroke: #000000; stroke-width: 0.6"/>
      </g>
     </g>
    </g>
    <g id="ytick_49">
     <g id="line2d_65">
      <g>
       <use xlink:href="#maa1293ff62" x="615.006521" y="467.902107" style="stroke: #000000; stroke-width: 0.6"/>
      </g>
     </g>
    </g>
    <g id="ytick_50">
     <g id="line2d_66">
      <g>
       <use xlink:href="#maa1293ff62" x="615.006521" y="461.033858" style="stroke: #000000; stroke-width: 0.6"/>
      </g>
     </g>
    </g>
    <g id="ytick_51">
     <g id="line2d_67">
      <g>
       <use xlink:href="#maa1293ff62" x="615.006521" y="414.470702" style="stroke: #000000; stroke-width: 0.6"/>
      </g>
     </g>
    </g>
    <g id="ytick_52">
     <g id="line2d_68">
      <g>
       <use xlink:href="#maa1293ff62" x="615.006521" y="390.826929" style="stroke: #000000; stroke-width: 0.6"/>
      </g>
     </g>
    </g>
    <g id="ytick_53">
     <g id="line2d_69">
      <g>
       <use xlink:href="#maa1293ff62" x="615.006521" y="374.051405" style="stroke: #000000; stroke-width: 0.6"/>
      </g>
     </g>
    </g>
    <g id="ytick_54">
     <g id="line2d_70">
      <g>
       <use xlink:href="#maa1293ff62" x="615.006521" y="361.039298" style="stroke: #000000; stroke-width: 0.6"/>
      </g>
     </g>
    </g>
    <g id="ytick_55">
     <g id="line2d_71">
      <g>
       <use xlink:href="#maa1293ff62" x="615.006521" y="350.407632" style="stroke: #000000; stroke-width: 0.6"/>
      </g>
     </g>
    </g>
    <g id="ytick_56">
     <g id="line2d_72">
      <g>
       <use xlink:href="#maa1293ff62" x="615.006521" y="341.418686" style="stroke: #000000; stroke-width: 0.6"/>
      </g>
     </g>
    </g>
    <g id="ytick_57">
     <g id="line2d_73">
      <g>
       <use xlink:href="#maa1293ff62" x="615.006521" y="333.632107" style="stroke: #000000; stroke-width: 0.6"/>
      </g>
     </g>
    </g>
    <g id="ytick_58">
     <g id="line2d_74">
      <g>
       <use xlink:href="#maa1293ff62" x="615.006521" y="326.763858" style="stroke: #000000; stroke-width: 0.6"/>
      </g>
     </g>
    </g>
    <g id="ytick_59">
     <g id="line2d_75">
      <g>
       <use xlink:href="#maa1293ff62" x="615.006521" y="280.200702" style="stroke: #000000; stroke-width: 0.6"/>
      </g>
     </g>
    </g>
    <g id="ytick_60">
     <g id="line2d_76">
      <g>
       <use xlink:href="#maa1293ff62" x="615.006521" y="256.556929" style="stroke: #000000; stroke-width: 0.6"/>
      </g>
     </g>
    </g>
    <g id="ytick_61">
     <g id="line2d_77">
      <g>
       <use xlink:href="#maa1293ff62" x="615.006521" y="239.781405" style="stroke: #000000; stroke-width: 0.6"/>
      </g>
     </g>
    </g>
    <g id="ytick_62">
     <g id="line2d_78">
      <g>
       <use xlink:href="#maa1293ff62" x="615.006521" y="226.769298" style="stroke: #000000; stroke-width: 0.6"/>
      </g>
     </g>
    </g>
    <g id="ytick_63">
     <g id="line2d_79">
      <g>
       <use xlink:href="#maa1293ff62" x="615.006521" y="216.137632" style="stroke: #000000; stroke-width: 0.6"/>
      </g>
     </g>
    </g>
    <g id="ytick_64">
     <g id="line2d_80">
      <g>
       <use xlink:href="#maa1293ff62" x="615.006521" y="207.148686" style="stroke: #000000; stroke-width: 0.6"/>
      </g>
     </g>
    </g>
    <g id="ytick_65">
     <g id="line2d_81">
      <g>
       <use xlink:href="#maa1293ff62" x="615.006521" y="199.362107" style="stroke: #000000; stroke-width: 0.6"/>
      </g>
     </g>
    </g>
    <g id="ytick_66">
     <g id="line2d_82">
      <g>
       <use xlink:href="#maa1293ff62" x="615.006521" y="192.493858" style="stroke: #000000; stroke-width: 0.6"/>
      </g>
     </g>
    </g>
    <g id="ytick_67">
     <g id="line2d_83">
      <g>
       <use xlink:href="#maa1293ff62" x="615.006521" y="145.930702" style="stroke: #000000; stroke-width: 0.6"/>
      </g>
     </g>
    </g>
    <g id="ytick_68">
     <g id="line2d_84">
      <g>
       <use xlink:href="#maa1293ff62" x="615.006521" y="122.286929" style="stroke: #000000; stroke-width: 0.6"/>
      </g>
     </g>
    </g>
    <g id="ytick_69">
     <g id="line2d_85">
      <g>
       <use xlink:href="#maa1293ff62" x="615.006521" y="105.511405" style="stroke: #000000; stroke-width: 0.6"/>
      </g>
     </g>
    </g>
    <g id="ytick_70">
     <g id="line2d_86">
      <g>
       <use xlink:href="#maa1293ff62" x="615.006521" y="92.499298" style="stroke: #000000; stroke-width: 0.6"/>
      </g>
     </g>
    </g>
    <g id="ytick_71">
     <g id="line2d_87">
      <g>
       <use xlink:href="#maa1293ff62" x="615.006521" y="81.867632" style="stroke: #000000; stroke-width: 0.6"/>
      </g>
     </g>
    </g>
    <g id="ytick_72">
     <g id="line2d_88">
      <g>
       <use xlink:href="#maa1293ff62" x="615.006521" y="72.878686" style="stroke: #000000; stroke-width: 0.6"/>
      </g>
     </g>
    </g>
    <g id="ytick_73">
     <g id="line2d_89">
      <g>
       <use xlink:href="#maa1293ff62" x="615.006521" y="65.092107" style="stroke: #000000; stroke-width: 0.6"/>
      </g>
     </g>
    </g>
    <g id="ytick_74">
     <g id="line2d_90">
      <g>
       <use xlink:href="#maa1293ff62" x="615.006521" y="58.223858" style="stroke: #000000; stroke-width: 0.6"/>
      </g>
     </g>
    </g>
   </g>
   <g id="line2d_91">
    <path d="M 638.945495 8.926793 
L 639.085818 40.532282 
L 639.22614 46.681456 
L 639.38985 57.132669 
L 639.436624 58.288686 
L 640.208399 74.913057 
L 640.208399 74.913057 
L 640.372109 77.650417 
L 640.512432 78.561572 
L 640.512432 78.561572 
L 640.676141 81.383706 
L 640.676141 81.383706 
L 640.839851 82.453694 
L 640.956787 84.146924 
L 641.330981 87.581136 
L 641.471303 88.772338 
L 641.471303 88.772338 
L 641.705174 91.230326 
L 641.705174 91.230326 
L 641.98582 91.573679 
L 641.98582 91.573679 
L 642.570498 95.490349 
L 642.570498 95.490349 
L 643.412434 99.425889 
L 643.412434 99.425889 
L 644.09066 102.389297 
L 644.09066 102.389297 
L 644.488241 104.213911 
L 644.488241 104.213911 
L 644.698725 104.931174 
L 645.283403 107.137467 
L 645.283403 107.137467 
L 645.493887 107.891847 
L 645.493887 107.891847 
L 645.844693 108.349204 
L 645.844693 108.349204 
L 646.078565 109.586655 
L 646.078565 109.586655 
L 646.452758 111.493508 
L 646.452758 111.493508 
L 646.476145 111.980126 
L 646.733404 112.306809 
L 646.733404 112.306809 
L 647.271307 114.13703 
L 647.271307 114.13703 
L 647.435017 114.476059 
L 647.435017 114.476059 
L 647.902759 116.201413 
L 647.902759 116.201413 
L 648.510824 117.979377 
L 648.510824 117.979377 
L 648.651147 118.523512 
L 648.651147 118.523512 
L 648.955179 118.889111 
L 648.955179 118.889111 
L 649.446309 120.374865 
L 649.446309 120.374865 
L 649.656793 120.94193 
L 649.656793 120.94193 
L 649.960825 121.323061 
L 649.960825 121.323061 
L 650.030987 121.899468 
L 650.030987 121.899468 
L 650.241471 122.286929 
L 650.241471 122.286929 
L 650.826148 123.863045 
L 650.826148 123.863045 
L 651.293891 124.870198 
L 651.293891 124.870198 
L 651.597923 125.895052 
L 651.597923 125.895052 
L 652.252762 126.938241 
L 652.252762 126.938241 
L 652.580182 128.000433 
L 652.580182 128.000433 
L 653.32857 129.741241 
L 653.32857 129.741241 
L 653.445505 130.184686 
L 653.445505 130.184686 
L 653.88986 131.30828 
L 653.88986 131.30828 
L 654.708409 131.992977 
L 654.708409 131.992977 
L 654.848732 132.685809 
L 654.848732 132.685809 
L 655.129377 133.152314 
L 655.129377 133.152314 
L 655.363248 133.859143 
L 655.363248 133.859143 
L 655.667281 134.335168 
L 655.667281 134.335168 
L 656.275346 135.542514 
L 656.275346 135.542514 
L 656.696314 136.279105 
L 656.696314 136.279105 
L 657.117282 136.775387 
L 657.117282 136.775387 
L 657.468088 137.527819 
L 657.468088 137.527819 
L 657.959218 138.03489 
L 657.959218 138.03489 
L 658.146315 138.80386 
L 658.146315 138.80386 
L 658.730993 139.322199 
L 658.730993 139.322199 
L 659.455993 140.905447 
L 659.455993 140.905447 
L 659.993897 141.442895 
L 659.993897 141.442895 
L 660.625349 142.808595 
L 660.625349 142.808595 
L 661.397123 144.207048 
L 661.397123 144.207048 
L 662.168898 145.062507 
L 662.168898 145.062507 
L 662.309221 145.639865 
L 662.309221 145.639865 
L 662.706802 146.516765 
L 662.706802 146.516765 
L 663.805996 148.00822 
L 663.805996 148.00822 
L 664.928577 149.538826 
L 664.928577 149.538826 
L 666.378578 152.074561 
L 666.378578 152.074561 
L 667.430999 152.726106 
L 667.430999 152.726106 
L 667.781805 153.717281 
L 667.781805 153.717281 
L 668.319709 154.38755 
L 668.319709 154.38755 
L 668.764064 155.407623 
L 668.764064 155.407623 
L 669.816484 157.148431 
L 669.816484 157.148431 
L 670.190678 157.85957 
L 670.190678 157.85957 
L 670.939065 160.046554 
L 670.939065 160.046554 
L 672.318905 161.933861 
L 672.318905 161.933861 
L 672.552776 162.706227 
L 672.552776 162.706227 
L 673.207615 163.884301 
L 673.207615 163.884301 
L 673.839067 164.683118 
L 673.839067 164.683118 
L 674.423745 165.902244 
L 674.423745 165.902244 
L 675.19552 166.729389 
L 675.19552 166.729389 
L 675.803585 167.992529 
L 675.803585 167.992529 
L 676.435037 168.850085 
L 676.435037 168.850085 
L 677.066489 170.160538 
L 677.066489 170.160538 
L 677.768102 171.050826 
L 677.768102 171.050826 
L 679.218103 172.412274 
L 679.218103 172.412274 
L 679.709233 173.80627 
L 679.709233 173.80627 
L 680.551169 174.754466 
L 680.551169 174.754466 
L 681.206008 176.206309 
L 681.206008 176.206309 
L 684.43343 181.324744 
L 684.43343 181.324744 
L 685.205204 182.40464 
L 685.205204 182.40464 
L 685.789882 184.062934 
L 685.789882 184.062934 
L 687.09956 185.195255 
L 687.09956 185.195255 
L 687.777787 186.936062 
L 687.777787 186.936062 
L 688.876981 188.126159 
L 688.876981 188.126159 
L 689.85924 189.958123 
L 689.85924 189.958123 
L 690.631015 191.849512 
L 690.631015 191.849512 
L 692.104403 193.145404 
L 692.104403 193.145404 
L 692.993113 195.144893 
L 692.993113 195.144893 
L 693.998759 196.51702 
L 693.998759 196.51702 
L 695.004405 198.637717 
L 695.004405 198.637717 
L 695.939889 200.09561 
L 695.939889 200.09561 
L 698.138278 202.353159 
L 698.138278 202.353159 
L 700.196344 206.321542 
L 700.196344 206.321542 
L 701.435861 207.987733 
L 701.435861 207.987733 
L 702.628603 210.579836 
L 702.628603 210.579836 
L 704.546347 212.374215 
L 704.546347 212.374215 
L 705.762477 215.173763 
L 705.762477 215.173763 
L 707.376187 218.114523 
L 707.376187 218.114523 
L 708.849575 220.160794 
L 708.849575 220.160794 
L 710.393125 223.371479 
L 710.393125 223.371479 
L 712.801998 225.614552 
L 712.801998 225.614552 
L 714.205224 229.149739 
L 714.205224 229.149739 
L 715.631838 231.631506 
L 715.631838 231.631506 
L 717.362485 235.56419 
L 717.362485 235.56419 
L 719.093131 238.341512 
L 719.093131 238.341512 
L 722.156843 242.772456 
L 722.156843 242.772456 
L 724.097973 245.925263 
L 724.097973 245.925263 
L 726.132652 250.999133 
L 726.132652 250.999133 
L 729.243138 256.556929 
L 729.243138 256.556929 
L 731.698785 260.580091 
L 731.698785 260.580091 
L 736.118949 267.188595 
L 736.118949 267.188595 
L 738.995564 272.050803 
L 738.995564 272.050803 
L 742.316534 280.200702 
L 742.316534 280.200702 
L 745.988311 286.344561 
L 745.988311 286.344561 
L 750.221378 296.976227 
L 750.221378 296.976227 
L 756.302027 305.320826 
L 756.302027 305.320826 
L 761.517354 320.62 
L 761.517354 320.62 
L 768.135907 333.632107 
L 768.135907 333.632107 
L 777.303655 361.039298 
L 777.303655 361.039298 
L 782.846401 390.826929 
L 782.846401 390.826929 
L 782.986723 431.246227 
L 782.986723 431.246227 
L 783.530951 649 
L 783.530951 649 
" clip-path="url(#p3b7913d1ad)" style="fill: none; stroke: #000000; stroke-width: 1.5; stroke-linecap: square"/>
   </g>
   <g id="line2d_92">
    <path d="M 638.924407 3.637708 
L 639.10372 38.742252 
L 639.324414 52.08 
L 639.324414 52.08 
L 639.597982 60.334957 
L 639.597982 60.334957 
L 639.662351 61.97 
L 639.83017 66.121615 
L 639.878446 66.94346 
L 640.101439 70.671775 
L 640.940534 81.673579 
L 640.940534 81.673579 
L 641.078467 83.144962 
L 641.078467 83.144962 
L 641.278471 85.063649 
L 641.278471 85.063649 
L 641.52905 87.260442 
L 641.52905 87.260442 
L 643.673914 100.754254 
L 643.673914 100.754254 
L 645.455554 108.349204 
L 645.455554 108.349204 
L 645.793491 109.586655 
L 645.793491 109.586655 
L 647.462486 115.505133 
L 647.462486 115.505133 
L 651.129216 125.073733 
L 651.129216 125.073733 
L 652.531539 128.000433 
L 652.531539 128.000433 
L 653.262586 129.520777 
L 653.262586 129.520777 
L 654.301685 131.76385 
L 654.301685 131.76385 
L 654.775256 132.685809 
L 654.775256 132.685809 
L 655.858033 134.815111 
L 655.858033 134.815111 
L 656.533907 136.03254 
L 656.533907 136.03254 
L 657.000582 137.02512 
L 657.000582 137.02512 
L 658.547735 139.845186 
L 658.547735 139.845186 
L 659.446601 141.442895 
L 659.446601 141.442895 
L 660.865017 143.924662 
L 660.865017 143.924662 
L 661.200655 144.490809 
L 661.200655 144.490809 
L 665.938668 152.399424 
L 665.938668 152.399424 
L 666.688106 153.717281 
L 666.688106 153.717281 
L 668.177787 156.097723 
L 668.177787 156.097723 
L 669.819195 158.94281 
L 669.819195 158.94281 
L 670.462884 160.046554 
L 670.462884 160.046554 
L 671.350256 161.551482 
L 671.350256 161.551482 
L 674.315824 166.31435 
L 674.315824 166.31435 
L 675.17331 167.568435 
L 675.17331 167.568435 
L 680.184891 175.718334 
L 680.184891 175.718334 
L 682.099867 178.709386 
L 682.099867 178.709386 
L 687.274669 186.936062 
L 687.274669 186.936062 
L 688.010314 188.126159 
L 688.010314 188.126159 
L 689.59425 190.581794 
L 689.59425 190.581794 
L 689.934485 191.212208 
L 689.934485 191.212208 
L 690.796569 192.493858 
L 690.796569 192.493858 
L 699.904773 207.148686 
L 699.904773 207.148686 
L 700.509381 207.987733 
L 700.509381 207.987733 
L 701.536985 209.702936 
L 701.536985 209.702936 
L 703.741621 213.292544 
L 703.741621 213.292544 
L 705.061184 215.173763 
L 705.061184 215.173763 
L 716.351035 234.223609 
L 716.351035 234.223609 
L 719.518906 239.781405 
L 719.518906 239.781405 
L 721.052266 242.772456 
L 721.052266 242.772456 
L 722.854596 245.925263 
L 722.854596 245.925263 
L 730.981173 260.580091 
L 730.981173 260.580091 
L 732.305334 262.700787 
L 732.305334 262.700787 
L 733.4111 264.901529 
L 733.4111 264.901529 
L 736.399658 269.569037 
L 736.399658 269.569037 
L 737.643358 272.050803 
L 737.643358 272.050803 
L 739.277869 274.642907 
L 739.277869 274.642907 
L 742.043434 280.200702 
L 742.043434 280.200702 
L 745.349238 286.344561 
L 745.349238 286.344561 
L 746.776849 289.677623 
L 746.776849 289.677623 
L 750.519443 296.976227 
L 750.519443 296.976227 
L 752.266599 300.999389 
L 752.266599 300.999389 
L 754.533305 305.320826 
L 754.533305 305.320826 
L 756.770125 309.988334 
L 756.770125 309.988334 
L 761.48515 320.62 
L 761.48515 320.62 
L 763.892088 326.763858 
L 763.892088 326.763858 
L 766.855358 333.632107 
L 766.855358 333.632107 
L 772.262348 350.407632 
L 772.262348 350.407632 
L 776.386557 361.039298 
L 776.386557 361.039298 
L 780.457892 374.051405 
L 780.457892 374.051405 
L 784.423478 390.826929 
L 784.423478 390.826929 
L 785.747639 414.470702 
L 785.747639 414.470702 
L 785.789019 454.89 
L 785.789019 454.89 
L 786.270173 649 
L 786.270173 649 
" clip-path="url(#p3b7913d1ad)" style="fill: none; stroke-dasharray: 9.6,2.4,1.5,2.4; stroke-dashoffset: 0; stroke: #808080; stroke-width: 1.5"/>
   </g>
   <g id="patch_9">
    <path d="M 615.006521 589.16 
L 615.006521 52.08 
" style="fill: none; stroke: #000000; stroke-width: 0.8; stroke-linejoin: miter; stroke-linecap: square"/>
   </g>
   <g id="patch_10">
    <path d="M 1141.2 589.16 
L 1141.2 52.08 
" style="fill: none; stroke: #000000; stroke-width: 0.8; stroke-linejoin: miter; stroke-linecap: square"/>
   </g>
   <g id="patch_11">
    <path d="M 615.006521 589.16 
L 1141.2 589.16 
" style="fill: none; stroke: #000000; stroke-width: 0.8; stroke-linejoin: miter; stroke-linecap: square"/>
   </g>
   <g id="patch_12">
    <path d="M 615.006521 52.08 
L 1141.2 52.08 
" style="fill: none; stroke: #000000; stroke-width: 0.8; stroke-linejoin: miter; stroke-linecap: square"/>
   </g>
   <g id="text_21">
    <!-- Y -->
    <g transform="translate(873.217011 46.08) scale(0.16 -0.16)">
     <defs>
      <path id="DejaVuSans-59" d="M -13 4666 
L 666 4666 
L 1959 2747 
L 3244 4666 
L 3922 4666 
L 2272 2222 
L 2272 0 
L 1638 0 
L 1638 2222 
L -13 4666 
z
" transform="scale(0.015625)"/>
     </defs>
     <use xlink:href="#DejaVuSans-59"/>
    </g>
   </g>
  </g>
  <g id="text_22">
   <!-- Cumulative Frequency Curves for Precipitation -->
   <g transform="translate(436.554375 22.078125) scale(0.12 -0.12)">
    <defs>
     <path id="DejaVuSans-43" d="M 4122 4306 
L 4122 3641 
Q 3803 3938 3442 4084 
Q 3081 4231 2675 4231 
Q 1875 4231 1450 3742 
Q 1025 3253 1025 2328 
Q 1025 1406 1450 917 
Q 1875 428 2675 428 
Q 3081 428 3442 575 
Q 3803 722 4122 1019 
L 4122 359 
Q 3791 134 3420 21 
Q 3050 -91 2638 -91 
Q 1578 -91 968 557 
Q 359 1206 359 2328 
Q 359 3453 968 4101 
Q 1578 4750 2638 4750 
Q 3056 4750 3426 4639 
Q 3797 4528 4122 4306 
z
" transform="scale(0.015625)"/>
     <path id="DejaVuSans-75" d="M 544 1381 
L 544 3500 
L 1119 3500 
L 1119 1403 
Q 1119 906 1312 657 
Q 1506 409 1894 409 
Q 2359 409 2629 706 
Q 2900 1003 2900 1516 
L 2900 3500 
L 3475 3500 
L 3475 0 
L 2900 0 
L 2900 538 
Q 2691 219 2414 64 
Q 2138 -91 1772 -91 
Q 1169 -91 856 284 
Q 544 659 544 1381 
z
M 1991 3584 
L 1991 3584 
z
" transform="scale(0.015625)"/>
     <path id="DejaVuSans-6d" d="M 3328 2828 
Q 3544 3216 3844 3400 
Q 4144 3584 4550 3584 
Q 5097 3584 5394 3201 
Q 5691 2819 5691 2113 
L 5691 0 
L 5113 0 
L 5113 2094 
Q 5113 2597 4934 2840 
Q 4756 3084 4391 3084 
Q 3944 3084 3684 2787 
Q 3425 2491 3425 1978 
L 3425 0 
L 2847 0 
L 2847 2094 
Q 2847 2600 2669 2842 
Q 2491 3084 2119 3084 
Q 1678 3084 1418 2786 
Q 1159 2488 1159 1978 
L 1159 0 
L 581 0 
L 581 3500 
L 1159 3500 
L 1159 2956 
Q 1356 3278 1631 3431 
Q 1906 3584 2284 3584 
Q 2666 3584 2933 3390 
Q 3200 3197 3328 2828 
z
" transform="scale(0.015625)"/>
     <path id="DejaVuSans-6c" d="M 603 4863 
L 1178 4863 
L 1178 0 
L 603 0 
L 603 4863 
z
" transform="scale(0.015625)"/>
     <path id="DejaVuSans-61" d="M 2194 1759 
Q 1497 1759 1228 1600 
Q 959 1441 959 1056 
Q 959 750 1161 570 
Q 1363 391 1709 391 
Q 2188 391 2477 730 
Q 2766 1069 2766 1631 
L 2766 1759 
L 2194 1759 
z
M 3341 1997 
L 3341 0 
L 2766 0 
L 2766 531 
Q 2569 213 2275 61 
Q 1981 -91 1556 -91 
Q 1019 -91 701 211 
Q 384 513 384 1019 
Q 384 1609 779 1909 
Q 1175 2209 1959 2209 
L 2766 2209 
L 2766 2266 
Q 2766 2663 2505 2880 
Q 2244 3097 1772 3097 
Q 1472 3097 1187 3025 
Q 903 2953 641 2809 
L 641 3341 
Q 956 3463 1253 3523 
Q 1550 3584 1831 3584 
Q 2591 3584 2966 3190 
Q 3341 2797 3341 1997 
z
" transform="scale(0.015625)"/>
     <path id="DejaVuSans-69" d="M 603 3500 
L 1178 3500 
L 1178 0 
L 603 0 
L 603 3500 
z
M 603 4863 
L 1178 4863 
L 1178 4134 
L 603 4134 
L 603 4863 
z
" transform="scale(0.015625)"/>
     <path id="DejaVuSans-76" d="M 191 3500 
L 800 3500 
L 1894 563 
L 2988 3500 
L 3597 3500 
L 2284 0 
L 1503 0 
L 191 3500 
z
" transform="scale(0.015625)"/>
     <path id="DejaVuSans-65" d="M 3597 1894 
L 3597 1613 
L 953 1613 
Q 991 1019 1311 708 
Q 1631 397 2203 397 
Q 2534 397 2845 478 
Q 3156 559 3463 722 
L 3463 178 
Q 3153 47 2828 -22 
Q 2503 -91 2169 -91 
Q 1331 -91 842 396 
Q 353 884 353 1716 
Q 353 2575 817 3079 
Q 1281 3584 2069 3584 
Q 2775 3584 3186 3129 
Q 3597 2675 3597 1894 
z
M 3022 2063 
Q 3016 2534 2758 2815 
Q 2500 3097 2075 3097 
Q 1594 3097 1305 2825 
Q 1016 2553 972 2059 
L 3022 2063 
z
" transform="scale(0.015625)"/>
     <path id="DejaVuSans-20" transform="scale(0.015625)"/>
     <path id="DejaVuSans-46" d="M 628 4666 
L 3309 4666 
L 3309 4134 
L 1259 4134 
L 1259 2759 
L 3109 2759 
L 3109 2228 
L 1259 2228 
L 1259 0 
L 628 0 
L 628 4666 
z
" transform="scale(0.015625)"/>
     <path id="DejaVuSans-72" d="M 2631 2963 
Q 2534 3019 2420 3045 
Q 2306 3072 2169 3072 
Q 1681 3072 1420 2755 
Q 1159 2438 1159 1844 
L 1159 0 
L 581 0 
L 581 3500 
L 1159 3500 
L 1159 2956 
Q 1341 3275 1631 3429 
Q 1922 3584 2338 3584 
Q 2397 3584 2469 3576 
Q 2541 3569 2628 3553 
L 2631 2963 
z
" transform="scale(0.015625)"/>
     <path id="DejaVuSans-71" d="M 947 1747 
Q 947 1113 1208 752 
Q 1469 391 1925 391 
Q 2381 391 2643 752 
Q 2906 1113 2906 1747 
Q 2906 2381 2643 2742 
Q 2381 3103 1925 3103 
Q 1469 3103 1208 2742 
Q 947 2381 947 1747 
z
M 2906 525 
Q 2725 213 2448 61 
Q 2172 -91 1784 -91 
Q 1150 -91 751 415 
Q 353 922 353 1747 
Q 353 2572 751 3078 
Q 1150 3584 1784 3584 
Q 2172 3584 2448 3432 
Q 2725 3281 2906 2969 
L 2906 3500 
L 3481 3500 
L 3481 -1331 
L 2906 -1331 
L 2906 525 
z
" transform="scale(0.015625)"/>
     <path id="DejaVuSans-63" d="M 3122 3366 
L 3122 2828 
Q 2878 2963 2633 3030 
Q 2388 3097 2138 3097 
Q 1578 3097 1268 2742 
Q 959 2388 959 1747 
Q 959 1106 1268 751 
Q 1578 397 2138 397 
Q 2388 397 2633 464 
Q 2878 531 3122 666 
L 3122 134 
Q 2881 22 2623 -34 
Q 2366 -91 2075 -91 
Q 1284 -91 818 406 
Q 353 903 353 1747 
Q 353 2603 823 3093 
Q 1294 3584 2113 3584 
Q 2378 3584 2631 3529 
Q 2884 3475 3122 3366 
z
" transform="scale(0.015625)"/>
     <path id="DejaVuSans-66" d="M 2375 4863 
L 2375 4384 
L 1825 4384 
Q 1516 4384 1395 4259 
Q 1275 4134 1275 3809 
L 1275 3500 
L 2222 3500 
L 2222 3053 
L 1275 3053 
L 1275 0 
L 697 0 
L 697 3053 
L 147 3053 
L 147 3500 
L 697 3500 
L 697 3744 
Q 697 4328 969 4595 
Q 1241 4863 1831 4863 
L 2375 4863 
z
" transform="scale(0.015625)"/>
     <path id="DejaVuSans-6f" d="M 1959 3097 
Q 1497 3097 1228 2736 
Q 959 2375 959 1747 
Q 959 1119 1226 758 
Q 1494 397 1959 397 
Q 2419 397 2687 759 
Q 2956 1122 2956 1747 
Q 2956 2369 2687 2733 
Q 2419 3097 1959 3097 
z
M 1959 3584 
Q 2709 3584 3137 3096 
Q 3566 2609 3566 1747 
Q 3566 888 3137 398 
Q 2709 -91 1959 -91 
Q 1206 -91 779 398 
Q 353 888 353 1747 
Q 353 2609 779 3096 
Q 1206 3584 1959 3584 
z
" transform="scale(0.015625)"/>
     <path id="DejaVuSans-50" d="M 1259 4147 
L 1259 2394 
L 2053 2394 
Q 2494 2394 2734 2622 
Q 2975 2850 2975 3272 
Q 2975 3691 2734 3919 
Q 2494 4147 2053 4147 
L 1259 4147 
z
M 628 4666 
L 2053 4666 
Q 2838 4666 3239 4311 
Q 3641 3956 3641 3272 
Q 3641 2581 3239 2228 
Q 2838 1875 2053 1875 
L 1259 1875 
L 1259 0 
L 628 0 
L 628 4666 
z
" transform="scale(0.015625)"/>
     <path id="DejaVuSans-70" d="M 1159 525 
L 1159 -1331 
L 581 -1331 
L 581 3500 
L 1159 3500 
L 1159 2969 
Q 1341 3281 1617 3432 
Q 1894 3584 2278 3584 
Q 2916 3584 3314 3078 
Q 3713 2572 3713 1747 
Q 3713 922 3314 415 
Q 2916 -91 2278 -91 
Q 1894 -91 1617 61 
Q 1341 213 1159 525 
z
M 3116 1747 
Q 3116 2381 2855 2742 
Q 2594 3103 2138 3103 
Q 1681 3103 1420 2742 
Q 1159 2381 1159 1747 
Q 1159 1113 1420 752 
Q 1681 391 2138 391 
Q 2594 391 2855 752 
Q 3116 1113 3116 1747 
z
" transform="scale(0.015625)"/>
    </defs>
    <use xlink:href="#DejaVuSans-43"/>
    <use xlink:href="#DejaVuSans-75" transform="translate(69.824219 0)"/>
    <use xlink:href="#DejaVuSans-6d" transform="translate(133.203125 0)"/>
    <use xlink:href="#DejaVuSans-75" transform="translate(230.615234 0)"/>
    <use xlink:href="#DejaVuSans-6c" transform="translate(293.994141 0)"/>
    <use xlink:href="#DejaVuSans-61" transform="translate(321.777344 0)"/>
    <use xlink:href="#DejaVuSans-74" transform="translate(383.056641 0)"/>
    <use xlink:href="#DejaVuSans-69" transform="translate(422.265625 0)"/>
    <use xlink:href="#DejaVuSans-76" transform="translate(450.048828 0)"/>
    <use xlink:href="#DejaVuSans-65" transform="translate(509.228516 0)"/>
    <use xlink:href="#DejaVuSans-20" transform="translate(570.751953 0)"/>
    <use xlink:href="#DejaVuSans-46" transform="translate(602.539062 0)"/>
    <use xlink:href="#DejaVuSans-72" transform="translate(652.808594 0)"/>
    <use xlink:href="#DejaVuSans-65" transform="translate(691.671875 0)"/>
    <use xlink:href="#DejaVuSans-71" transform="translate(753.195312 0)"/>
    <use xlink:href="#DejaVuSans-75" transform="translate(816.671875 0)"/>
    <use xlink:href="#DejaVuSans-65" transform="translate(880.050781 0)"/>
    <use xlink:href="#DejaVuSans-6e" transform="translate(941.574219 0)"/>
    <use xlink:href="#DejaVuSans-63" transform="translate(1004.953125 0)"/>
    <use xlink:href="#DejaVuSans-79" transform="translate(1059.933594 0)"/>
    <use xlink:href="#DejaVuSans-20" transform="translate(1119.113281 0)"/>
    <use xlink:href="#DejaVuSans-43" transform="translate(1150.900391 0)"/>
    <use xlink:href="#DejaVuSans-75" transform="translate(1220.724609 0)"/>
    <use xlink:href="#DejaVuSans-72" transform="translate(1284.103516 0)"/>
    <use xlink:href="#DejaVuSans-76" transform="translate(1325.216797 0)"/>
    <use xlink:href="#DejaVuSans-65" transform="translate(1384.396484 0)"/>
    <use xlink:href="#DejaVuSans-73" transform="translate(1445.919922 0)"/>
    <use xlink:href="#DejaVuSans-20" transform="translate(1498.019531 0)"/>
    <use xlink:href="#DejaVuSans-66" transform="translate(1529.806641 0)"/>
    <use xlink:href="#DejaVuSans-6f" transform="translate(1565.011719 0)"/>
    <use xlink:href="#DejaVuSans-72" transform="translate(1626.193359 0)"/>
    <use xlink:href="#DejaVuSans-20" transform="translate(1667.306641 0)"/>
    <use xlink:href="#DejaVuSans-50" transform="translate(1699.09375 0)"/>
    <use xlink:href="#DejaVuSans-72" transform="translate(1757.646484 0)"/>
    <use xlink:href="#DejaVuSans-65" transform="translate(1796.509766 0)"/>
    <use xlink:href="#DejaVuSans-63" transform="translate(1858.033203 0)"/>
    <use xlink:href="#DejaVuSans-69" transform="translate(1913.013672 0)"/>
    <use xlink:href="#DejaVuSans-70" transform="translate(1940.796875 0)"/>
    <use xlink:href="#DejaVuSans-69" transform="translate(2004.273438 0)"/>
    <use xlink:href="#DejaVuSans-74" transform="translate(2032.056641 0)"/>
    <use xlink:href="#DejaVuSans-61" transform="translate(2071.265625 0)"/>
    <use xlink:href="#DejaVuSans-74" transform="translate(2132.544922 0)"/>
    <use xlink:href="#DejaVuSans-69" transform="translate(2171.753906 0)"/>
    <use xlink:href="#DejaVuSans-6f" transform="translate(2199.537109 0)"/>
    <use xlink:href="#DejaVuSans-6e" transform="translate(2260.71875 0)"/>
   </g>
  </g>
  <g id="text_23">
   <!-- % Exceedance -->
   <g transform="translate(510.28875 637.776562) scale(0.18 -0.18)">
    <defs>
     <path id="DejaVuSans-25" d="M 4653 2053 
Q 4381 2053 4226 1822 
Q 4072 1591 4072 1178 
Q 4072 772 4226 539 
Q 4381 306 4653 306 
Q 4919 306 5073 539 
Q 5228 772 5228 1178 
Q 5228 1588 5073 1820 
Q 4919 2053 4653 2053 
z
M 4653 2450 
Q 5147 2450 5437 2106 
Q 5728 1763 5728 1178 
Q 5728 594 5436 251 
Q 5144 -91 4653 -91 
Q 4153 -91 3862 251 
Q 3572 594 3572 1178 
Q 3572 1766 3864 2108 
Q 4156 2450 4653 2450 
z
M 1428 4353 
Q 1159 4353 1004 4120 
Q 850 3888 850 3481 
Q 850 3069 1003 2837 
Q 1156 2606 1428 2606 
Q 1700 2606 1854 2837 
Q 2009 3069 2009 3481 
Q 2009 3884 1853 4118 
Q 1697 4353 1428 4353 
z
M 4250 4750 
L 4750 4750 
L 1831 -91 
L 1331 -91 
L 4250 4750 
z
M 1428 4750 
Q 1922 4750 2215 4408 
Q 2509 4066 2509 3481 
Q 2509 2891 2217 2550 
Q 1925 2209 1428 2209 
Q 931 2209 642 2551 
Q 353 2894 353 3481 
Q 353 4063 643 4406 
Q 934 4750 1428 4750 
z
" transform="scale(0.015625)"/>
     <path id="DejaVuSans-45" d="M 628 4666 
L 3578 4666 
L 3578 4134 
L 1259 4134 
L 1259 2753 
L 3481 2753 
L 3481 2222 
L 1259 2222 
L 1259 531 
L 3634 531 
L 3634 0 
L 628 0 
L 628 4666 
z
" transform="scale(0.015625)"/>
     <path id="DejaVuSans-78" d="M 3513 3500 
L 2247 1797 
L 3578 0 
L 2900 0 
L 1881 1375 
L 863 0 
L 184 0 
L 1544 1831 
L 300 3500 
L 978 3500 
L 1906 2253 
L 2834 3500 
L 3513 3500 
z
" transform="scale(0.015625)"/>
     <path id="DejaVuSans-64" d="M 2906 2969 
L 2906 4863 
L 3481 4863 
L 3481 0 
L 2906 0 
L 2906 525 
Q 2725 213 2448 61 
Q 2172 -91 1784 -91 
Q 1150 -91 751 415 
Q 353 922 353 1747 
Q 353 2572 751 3078 
Q 1150 3584 1784 3584 
Q 2172 3584 2448 3432 
Q 2725 3281 2906 2969 
z
M 947 1747 
Q 947 1113 1208 752 
Q 1469 391 1925 391 
Q 2381 391 2643 752 
Q 2906 1113 2906 1747 
Q 2906 2381 2643 2742 
Q 2381 3103 1925 3103 
Q 1469 3103 1208 2742 
Q 947 2381 947 1747 
z
" transform="scale(0.015625)"/>
    </defs>
    <use xlink:href="#DejaVuSans-25"/>
    <use xlink:href="#DejaVuSans-20" transform="translate(95.019531 0)"/>
    <use xlink:href="#DejaVuSans-45" transform="translate(126.806641 0)"/>
    <use xlink:href="#DejaVuSans-78" transform="translate(189.990234 0)"/>
    <use xlink:href="#DejaVuSans-63" transform="translate(247.419922 0)"/>
    <use xlink:href="#DejaVuSans-65" transform="translate(302.400391 0)"/>
    <use xlink:href="#DejaVuSans-65" transform="translate(363.923828 0)"/>
    <use xlink:href="#DejaVuSans-64" transform="translate(425.447266 0)"/>
    <use xlink:href="#DejaVuSans-61" transform="translate(488.923828 0)"/>
    <use xlink:href="#DejaVuSans-6e" transform="translate(550.203125 0)"/>
    <use xlink:href="#DejaVuSans-63" transform="translate(613.582031 0)"/>
    <use xlink:href="#DejaVuSans-65" transform="translate(668.5625 0)"/>
   </g>
  </g>
  <g id="text_24">
   <!-- Daily Precipitation [m] -->
   <g transform="translate(36.717187 424.532812) rotate(-90) scale(0.18 -0.18)">
    <defs>
     <path id="DejaVuSans-44" d="M 1259 4147 
L 1259 519 
L 2022 519 
Q 2988 519 3436 956 
Q 3884 1394 3884 2338 
Q 3884 3275 3436 3711 
Q 2988 4147 2022 4147 
L 1259 4147 
z
M 628 4666 
L 1925 4666 
Q 3281 4666 3915 4102 
Q 4550 3538 4550 2338 
Q 4550 1131 3912 565 
Q 3275 0 1925 0 
L 628 0 
L 628 4666 
z
" transform="scale(0.015625)"/>
     <path id="DejaVuSans-5b" d="M 550 4863 
L 1875 4863 
L 1875 4416 
L 1125 4416 
L 1125 -397 
L 1875 -397 
L 1875 -844 
L 550 -844 
L 550 4863 
z
" transform="scale(0.015625)"/>
     <path id="DejaVuSans-5d" d="M 1947 4863 
L 1947 -844 
L 622 -844 
L 622 -397 
L 1369 -397 
L 1369 4416 
L 622 4416 
L 622 4863 
L 1947 4863 
z
" transform="scale(0.015625)"/>
    </defs>
    <use xlink:href="#DejaVuSans-44"/>
    <use xlink:href="#DejaVuSans-61" transform="translate(77.001953 0)"/>
    <use xlink:href="#DejaVuSans-69" transform="translate(138.28125 0)"/>
    <use xlink:href="#DejaVuSans-6c" transform="translate(166.064453 0)"/>
    <use xlink:href="#DejaVuSans-79" transform="translate(193.847656 0)"/>
    <use xlink:href="#DejaVuSans-20" transform="translate(253.027344 0)"/>
    <use xlink:href="#DejaVuSans-50" transform="translate(284.814453 0)"/>
    <use xlink:href="#DejaVuSans-72" transform="translate(343.367188 0)"/>
    <use xlink:href="#DejaVuSans-65" transform="translate(382.230469 0)"/>
    <use xlink:href="#DejaVuSans-63" transform="translate(443.753906 0)"/>
    <use xlink:href="#DejaVuSans-69" transform="translate(498.734375 0)"/>
    <use xlink:href="#DejaVuSans-70" transform="translate(526.517578 0)"/>
    <use xlink:href="#DejaVuSans-69" transform="translate(589.994141 0)"/>
    <use xlink:href="#DejaVuSans-74" transform="translate(617.777344 0)"/>
    <use xlink:href="#DejaVuSans-61" transform="translate(656.986328 0)"/>
    <use xlink:href="#DejaVuSans-74" transform="translate(718.265625 0)"/>
    <use xlink:href="#DejaVuSans-69" transform="translate(757.474609 0)"/>
    <use xlink:href="#DejaVuSans-6f" transform="translate(785.257812 0)"/>
    <use xlink:href="#DejaVuSans-6e" transform="translate(846.439453 0)"/>
    <use xlink:href="#DejaVuSans-20" transform="translate(909.818359 0)"/>
    <use xlink:href="#DejaVuSans-5b" transform="translate(941.605469 0)"/>
    <use xlink:href="#DejaVuSans-6d" transform="translate(980.619141 0)"/>
    <use xlink:href="#DejaVuSans-5d" transform="translate(1078.03125 0)"/>
   </g>
  </g>
 </g>
 <defs>
  <clipPath id="pd55906d32c">
   <rect x="74.513043" y="52.08" width="526.193479" height="537.08"/>
  </clipPath>
  <clipPath id="p3b7913d1ad">
   <rect x="615.006521" y="52.08" width="526.193479" height="537.08"/>
  </clipPath>
 </defs>
</svg>
